<svg width="88" height="46" viewBox="0 0 88 46" fill="none" xmlns="http://www.w3.org/2000/svg">
<path fill-rule="evenodd" clip-rule="evenodd" d="M-1.13986e-05 41.6987C-1.16032e-05 43.9079 1.79084 45.6987 3.99999 45.6987L72.302 45.6987C74.5111 45.6987 76.302 43.9078 76.302 41.6987L76.302 5C76.302 2.79086 74.5111 1 72.302 1L3.99999 1.00006C1.79085 1.00006 -7.79526e-06 2.79092 -7.99985e-06 5.00006L-1.13986e-05 41.6987ZM56.2225 9.03185C48.2187 9.03185 41.7304 15.5202 41.7304 23.524C41.7304 31.5278 48.2187 38.0161 56.2225 38.0161C64.2263 38.0161 70.7147 31.5278 70.7147 23.524C70.7147 15.5202 64.2263 9.03186 56.2225 9.03185Z" fill="#131BDE"/>
<path d="M69.5587 19.4592C68.8468 19.9329 68.9192 20.5361 69.2437 21.0382C69.7743 21.8589 71.1605 22.6171 73.4742 22.6171C78.32 22.6171 86.2924 22.1434 90 22.6171M90 27.0382C84.3643 26.7352 78.8174 26.0908 73.4742 25.4592C72.1907 25.4592 70.7405 25.1299 69.5587 26.4066C69.2512 26.7388 68.6688 27.8276 69.2437 28.4592" stroke="url(#paint0_linear_8_1021)" stroke-width="2" stroke-linecap="round"/>
<path d="M76.0353 19.4592C75.8587 19.4592 76.4008 19.5654 76.4322 19.5788C77.0776 19.8536 77.7312 20.2479 78.2911 20.6766C79.6797 21.7398 80.4937 23.8091 79.6697 25.5244C78.9286 27.0671 78.2847 27.9397 76.7872 28.4592" stroke="#131BDE" stroke-width="2" stroke-linecap="round"/>
<path d="M6.44944 24L6.30499 37M6.20787 45.7416L6.25643 41.3708M6.44944 5.55056L6.5 1" stroke="white"/>
<path d="M3.70368 37.1441L2.30273 38.4612L8.14952 44.6803L9.55046 43.3633C11.1129 41.7197 11.1454 39.2127 9.58462 37.5526C8.00805 35.8756 5.42351 35.7178 3.7116 37.1525L3.70368 37.1441ZM5.0505 38.5767C5.99147 37.8667 7.35182 37.9848 8.18368 38.8697C8.99177 39.7292 8.97861 41.0275 8.20364 41.9307L5.0505 38.5767Z" fill="#FFC700"/>
<path d="M9.79531 31.4648C8.11252 33.0469 8.05231 35.707 9.66057 37.4177C11.2688 39.1284 13.9276 39.2323 15.6104 37.6503C17.2932 36.0682 17.3617 33.4003 15.7534 31.6896C14.1452 29.9789 11.4781 29.8828 9.79531 31.4648ZM14.2715 36.2261C13.3679 37.0756 11.9251 37.0192 11.0615 36.1006C10.198 35.1821 10.2306 33.7385 11.1342 32.889C12.0378 32.0395 13.4806 32.0959 14.3442 33.0145C15.2077 33.933 15.1751 35.3766 14.2715 36.2261Z" fill="#FFC700"/>
<path d="M20.1764 28.5316L14.8123 26.7958L13.287 28.2298L19.0863 34.3984L20.4872 33.0813L17.0964 29.4745L22.4767 31.2109L23.9937 29.7848L18.1786 23.5993L16.7777 24.9164L20.1764 28.5316Z" fill="#FFC700"/>
<path d="M21.6307 20.3381C19.9479 21.9202 19.8877 24.5803 21.4959 26.291C23.1042 28.0017 25.763 28.1056 27.4458 26.5236C29.1285 24.9415 29.197 22.2736 27.5888 20.5629C25.9805 18.8522 23.3135 18.7561 21.6307 20.3381ZM26.1069 25.0994C25.2033 25.9489 23.7604 25.8925 22.8969 24.9739C22.0333 24.0554 22.066 22.6118 22.9696 21.7623C23.8731 20.9128 25.316 20.9692 26.1796 21.8878C27.0431 22.8063 27.0104 24.2499 26.1069 25.0994Z" fill="#FFC700"/>
<path d="M33.4421 20.8863C34.2379 20.1381 34.7232 19.1262 34.7497 17.9583L32.8125 17.8745C32.7839 19.1397 31.7314 20.1132 30.4831 20.0644C29.8674 20.0241 29.3131 19.7833 28.8932 19.3366C28.4733 18.89 28.2592 18.3134 28.2569 17.6964C28.2852 16.4474 29.3217 15.4571 30.5863 15.5065L30.63 13.5763C28.2954 13.485 26.3722 15.2931 26.3194 17.6288C26.294 18.748 26.7 19.811 27.4922 20.6537C28.2765 21.488 29.3046 21.9503 30.4391 22.0108C31.6063 22.0565 32.6545 21.6266 33.4421 20.8863Z" fill="#FFC700"/>
<path d="M38.2244 13.7232L36.0028 15.8118L31.5187 11.0421L30.1177 12.3592L35.9407 18.5531L39.5633 15.1474L38.2244 13.7232Z" fill="#FFC700"/>
<path d="M36.5908 6.27369C34.908 7.85572 34.8478 10.5159 36.4561 12.2265C38.0643 13.9372 40.7231 14.0412 42.4059 12.4591C44.0887 10.8771 44.1572 8.20916 42.5489 6.49848C40.9407 4.78779 38.2736 4.69165 36.5908 6.27369ZM41.067 11.035C40.1634 11.8844 38.7206 11.828 37.857 10.9095C36.9935 9.99093 37.0261 8.54732 37.9297 7.69785C38.8333 6.84839 40.2762 6.90479 41.1397 7.82334C42.0033 8.74189 41.9706 10.1855 41.067 11.035Z" fill="#FFC700"/>
<path d="M6 6L12 6L12 6.83478L6 6.83478L6 6ZM6 7.11304L12 7.11304L12 7.3913L6 7.3913L6 7.11304ZM6 7.66956L12 7.66957L12 7.94783L6 7.94783L6 7.66956ZM6 8.78261L12 8.78261L12 9.61739L6 9.61739L6 8.78261ZM6 9.89565L12 9.89565L12 10.1739L6 10.1739L6 9.89565Z" fill="white"/>
<path d="M6 10.4565L12 10.4565L12 11.2913L6 11.2913L6 10.4565ZM6 11.5696L12 11.5696L12 11.8478L6 11.8478L6 11.5696ZM6 12.1261L12 12.1261L12 12.9609L6 12.9609L6 12.1261ZM6 13.7957L12 13.7957L12 14.0739L6 14.0739L6 13.7957ZM6 14.3522L12 14.3522L12 14.6304L6 14.6304L6 14.3522Z" fill="white"/>
<path d="M6 14.913L12 14.913L12 15.1913L6 15.1913L6 14.913ZM6 15.4696L12 15.4696L12 16.3043L6 16.3043L6 15.4696ZM6 16.5826L12 16.5826L12 16.8609L6 16.8609L6 16.5826ZM6 17.1391L12 17.1391L12 17.4174L6 17.4174L6 17.1391ZM6 18.2522L12 18.2522L12 19.087L6 19.087L6 18.2522Z" fill="white"/>
<path d="M6 19.3696L12 19.3696L12 19.6478L6 19.6478L6 19.3696ZM6 19.9261L12 19.9261L12 20.7609L6 20.7609L6 19.9261ZM6 21.0391L12 21.0391L12 21.3174L6 21.3174L6 21.0391ZM6 21.5957L12 21.5957L12 21.8739L6 21.8739L6 21.5957ZM6 22.7087L12 22.7087L12 23.5435L6 23.5435L6 22.7087Z" fill="white"/>
<defs>
<linearGradient id="paint0_linear_8_1021" x1="90" y1="23.9592" x2="69" y2="23.9592" gradientUnits="userSpaceOnUse">
<stop stop-color="#0009FF"/>
<stop offset="0.760417" stop-color="white"/>
<stop offset="1" stop-color="#131BDE"/>
</linearGradient>
</defs>
</svg>
