<svg width="87" height="87" viewBox="0 0 87 87" fill="none" xmlns="http://www.w3.org/2000/svg">
<circle cx="43.5" cy="43.5" r="43.5" fill="white"/>
<path d="M38.8565 76.4955L37.7681 76.2912L37.8371 75.9235C37.5171 76.0335 37.2197 76.0969 36.9449 76.1139C36.6678 76.1304 36.4029 76.1149 36.1504 76.0675C35.8195 76.0054 35.5223 75.8989 35.2588 75.7479C34.9948 75.5994 34.7778 75.4102 34.6078 75.1803C34.4378 74.9505 34.3221 74.6813 34.2607 74.3729C34.1964 74.0665 34.1995 73.7257 34.2699 73.3507L34.6702 71.218L35.7549 71.4216L35.3877 73.3778C35.3431 73.6155 35.3376 73.834 35.3713 74.0332C35.402 74.2344 35.4692 74.4107 35.5727 74.5621C35.6734 74.7155 35.8082 74.8423 35.9771 74.9425C36.1432 75.0447 36.3378 75.1168 36.5609 75.1587C36.6785 75.1807 36.8022 75.1913 36.9318 75.1902C37.059 75.1887 37.187 75.1759 37.3158 75.1519C37.4418 75.1299 37.5663 75.0949 37.6895 75.047C37.8123 75.0015 37.927 74.9444 38.0339 74.8756L38.5826 71.9523L39.671 72.1566L38.8565 76.4955Z" fill="#131BDE"/>
<path d="M33.185 72.9591C33.069 73.235 32.9019 73.4745 32.6838 73.6777C32.4648 73.8832 32.2089 74.0381 31.9162 74.1422C31.6234 74.2463 31.3 74.2916 30.9458 74.2779C30.5894 74.2632 30.2158 74.1737 29.825 74.0093C29.4364 73.8458 29.1116 73.6402 28.8506 73.3924C28.5863 73.1459 28.3886 72.876 28.2576 72.5828C28.1243 72.2886 28.0578 71.9806 28.0579 71.6586C28.0557 71.3357 28.1204 71.0179 28.252 70.7053C28.2684 70.6662 28.2874 70.6241 28.3091 70.5791C28.3275 70.5354 28.3467 70.4962 28.3668 70.4613L32.2153 72.0803C32.2229 71.9401 32.1997 71.7991 32.1457 71.6573C32.0894 71.5146 32.0031 71.3755 31.8869 71.24C31.7708 71.1045 31.6248 70.9755 31.4491 70.8529C31.2724 70.7326 31.0668 70.6231 30.8323 70.5244C30.5978 70.4258 30.3543 70.3517 30.1018 70.3023C29.8483 70.2552 29.5999 70.2251 29.3565 70.212L29.3395 69.2876C29.4989 69.2816 29.6578 69.2835 29.816 69.2932C29.971 69.3043 30.13 69.3252 30.293 69.3559C30.4527 69.3879 30.6175 69.4302 30.7875 69.4828C30.9552 69.5344 31.1288 69.5979 31.3081 69.6733C31.7656 69.8658 32.1436 70.0897 32.442 70.3452C32.7404 70.6006 32.9656 70.8725 33.1175 71.1611C33.2694 71.4496 33.3499 71.7472 33.3588 72.054C33.3677 72.3608 33.3098 72.6625 33.185 72.9591ZM29.1041 71.7091C29.0935 71.8372 29.107 71.966 29.1445 72.0955C29.1788 72.2262 29.2384 72.3514 29.3234 72.4711C29.4074 72.593 29.5166 72.7066 29.6509 72.8118C29.7852 72.917 29.9432 73.0078 30.1248 73.0842C30.3179 73.1654 30.503 73.2176 30.68 73.2406C30.857 73.2637 31.0208 73.2636 31.1713 73.2403C31.3218 73.217 31.4576 73.174 31.5787 73.1113C31.6974 73.0477 31.798 72.9695 31.8802 72.8769L29.1041 71.7091Z" fill="#131BDE"/>
<path d="M26.3718 72.2869L25.3301 71.5375L25.949 68.7104L26.1105 67.9094L25.2127 68.4526L24.6772 71.0677L23.8025 70.4385L24.1329 69.0631L22.9339 69.8136L22.0593 69.1844L24.3715 67.8474L24.598 66.8214L23.8899 67.2291L21.4063 68.7146L20.3646 67.9652L24.6426 65.5999L25.6205 66.3034L25.4504 67.2318L26.2765 66.7753L27.2545 67.4788L26.3718 72.2869Z" fill="#131BDE"/>
<path d="M17.484 64.4228L16.8486 63.5159L17.155 63.3012C16.8492 63.156 16.5922 62.9935 16.3839 62.8136C16.1742 62.6316 15.9957 62.4354 15.8482 62.225C15.655 61.9492 15.517 61.6653 15.4341 61.3731C15.3492 61.0824 15.3263 60.7954 15.3654 60.5122C15.4045 60.229 15.5099 59.9557 15.6817 59.6922C15.8499 59.4281 16.0903 59.1866 16.4028 58.9676L18.18 57.7225L18.8133 58.6264L17.1832 59.7685C16.9851 59.9073 16.8284 60.0597 16.7132 60.2257C16.5946 60.391 16.5194 60.564 16.4876 60.7447C16.4523 60.9247 16.46 61.1096 16.5108 61.2994C16.5581 61.4886 16.6468 61.6761 16.7771 61.862C16.8458 61.9601 16.9268 62.054 17.0202 62.1439C17.1122 62.2317 17.2127 62.3121 17.3216 62.385C17.4271 62.4573 17.5406 62.5193 17.6622 62.5712C17.7818 62.6245 17.9038 62.6639 18.0282 62.6893L20.4642 60.9827L21.0996 61.8896L17.484 64.4228Z" fill="#131BDE"/>
<path d="M14.4212 57.8444L14.738 58.5306L13.9839 58.8787L13.6672 58.1926C13.3954 58.318 13.1365 58.3909 12.8903 58.4111C12.6419 58.4324 12.4118 58.404 12.2 58.326C11.9848 58.2468 11.7907 58.1207 11.6175 57.9479C11.4433 57.7729 11.2955 57.554 11.1743 57.2913C11.0896 57.1079 11.0246 56.9195 10.9793 56.7262C10.9317 56.5339 10.9094 56.3546 10.9123 56.1884L11.9228 56.1546C11.9162 56.2236 11.9223 56.3142 11.9411 56.4264C11.9589 56.5363 11.9949 56.6501 12.0493 56.7679C12.1559 56.9988 12.3079 57.1554 12.5051 57.2374C12.699 57.3182 12.9316 57.3014 13.203 57.1871L12.6181 55.9201L13.3721 55.572L13.9571 56.839L17.2112 55.3367L17.6753 56.3421L14.4212 57.8444Z" fill="#131BDE"/>
<path d="M12.7071 53.4111L13.0099 54.4335L12.2135 54.6693L11.9108 53.647L10.5942 54.0368L10.2798 52.975L11.5963 52.5851L11.2936 51.5628L12.0899 51.3269L12.3927 52.3493L15.8293 51.3316L16.1437 52.3935L12.7071 53.4111Z" fill="#131BDE"/>
<path d="M15.6803 45.4121C15.7303 45.2725 15.7717 45.1304 15.8043 44.9858C15.8394 44.8411 15.867 44.7015 15.8872 44.5669C15.9098 44.4297 15.9249 44.2988 15.9326 44.1741C15.9427 44.0494 15.9479 43.9384 15.948 43.8411C15.9484 43.5468 15.9125 43.2911 15.8405 43.074C15.771 42.8544 15.6764 42.6722 15.5569 42.5274C15.4374 42.3801 15.2978 42.2702 15.1383 42.1976C14.9813 42.1251 14.8142 42.0887 14.6371 42.0885L14.4463 42.0882C14.511 42.1831 14.5732 42.2942 14.6329 42.4214C14.6926 42.5487 14.7448 42.6885 14.7895 42.8407C14.8342 42.9929 14.8702 43.155 14.8974 43.3272C14.9246 43.4968 14.9381 43.6727 14.9378 43.8548C14.9373 44.2164 14.8833 44.5506 14.7756 44.8572C14.6655 45.1638 14.513 45.4293 14.3181 45.6535C14.1208 45.8777 13.8849 46.0532 13.6103 46.1801C13.3358 46.3044 13.0314 46.3664 12.6972 46.3659C12.3555 46.3655 12.0463 46.299 11.7696 46.1664C11.4905 46.0338 11.2525 45.8514 11.0558 45.6192C10.8591 45.3845 10.7073 45.1075 10.6005 44.7881C10.4936 44.4687 10.4405 44.1219 10.441 43.7478C10.4412 43.5882 10.4514 43.4298 10.4715 43.2727C10.4917 43.1156 10.5193 42.966 10.5544 42.8238C10.5895 42.6792 10.6321 42.5446 10.6822 42.42C10.7297 42.2928 10.7823 42.1806 10.8397 42.0834L10.5217 42.083L10.5232 40.9756L14.4328 40.9808C14.8344 40.9813 15.1897 41.0429 15.4988 41.1655C15.8079 41.2882 16.0671 41.4681 16.2763 41.7053C16.488 41.94 16.6472 42.2321 16.754 42.5814C16.8633 42.9307 16.9176 43.3311 16.917 43.7826C16.9168 43.9447 16.9091 44.113 16.8939 44.2876C16.8812 44.4622 16.861 44.638 16.8334 44.815C16.8082 44.9896 16.7768 45.1629 16.7391 45.3349C16.704 45.5045 16.6626 45.6678 16.615 45.8249L15.6803 45.4121ZM12.6875 45.2024C12.8646 45.2026 13.0318 45.1679 13.189 45.0983C13.3437 45.0261 13.4798 44.9241 13.5972 44.792C13.7121 44.66 13.8034 44.5005 13.871 44.3135C13.936 44.1265 13.9688 43.9158 13.9691 43.6814C13.9693 43.5292 13.9557 43.3783 13.9285 43.2286C13.8988 43.0764 13.8578 42.9317 13.8056 42.7945C13.7534 42.6547 13.69 42.525 13.6153 42.4051C13.5407 42.2828 13.4573 42.1767 13.3651 42.0868L11.9097 42.0849C11.8198 42.197 11.7436 42.3154 11.6811 42.44C11.6185 42.5646 11.5672 42.6917 11.5272 42.8214C11.4871 42.951 11.4582 43.0819 11.4406 43.2141C11.4205 43.3463 11.4103 43.4747 11.4102 43.5994C11.4098 43.8538 11.4432 44.0808 11.5103 44.2805C11.5773 44.4776 11.6694 44.6448 11.7864 44.7821C11.901 44.917 12.0356 45.0207 12.1901 45.0932C12.3446 45.1657 12.5105 45.2021 12.6875 45.2024Z" fill="#131BDE"/>
<path d="M12.9543 39.8742C12.6618 39.8107 12.3957 39.6903 12.156 39.5131C11.9138 39.3355 11.7148 39.1123 11.5588 38.8435C11.4027 38.5748 11.299 38.2651 11.2476 37.9145C11.1967 37.5614 11.2163 37.1777 11.3064 36.7634C11.3959 36.3515 11.5385 35.9945 11.7343 35.6925C11.9282 35.3875 12.1573 35.1437 12.4216 34.9613C12.6864 34.7763 12.977 34.6544 13.2936 34.5956C13.6106 34.5343 13.9349 34.5397 14.2663 34.6118C14.3078 34.6208 14.3526 34.6318 14.4008 34.6448C14.4471 34.6549 14.4892 34.6666 14.5272 34.6799L13.6405 38.7599C13.7798 38.7417 13.9141 38.6931 14.0436 38.614C14.1736 38.5325 14.2946 38.4222 14.4065 38.2832C14.5184 38.1442 14.6185 37.977 14.7069 37.7818C14.7928 37.5861 14.8628 37.3639 14.9168 37.1153C14.9708 36.8667 14.999 36.6138 15.0013 36.3565C15.0012 36.0987 14.9853 35.8489 14.9536 35.6072L15.8592 35.4212C15.8943 35.5768 15.9216 35.7334 15.941 35.8907C15.9585 36.0451 15.9671 36.2052 15.9668 36.3711C15.9645 36.5339 15.9532 36.7037 15.9326 36.8805C15.9126 37.0548 15.8819 37.237 15.8406 37.4271C15.7352 37.9122 15.5843 38.3248 15.3879 38.6649C15.1914 39.0051 14.9653 39.2763 14.7095 39.4785C14.4537 39.6807 14.1758 39.8143 13.8759 39.8793C13.5759 39.9442 13.2687 39.9426 12.9543 39.8742ZM13.4356 35.6334C13.3077 35.6464 13.1835 35.6833 13.0632 35.7439C12.9409 35.8015 12.8287 35.8831 12.7267 35.9885C12.6222 36.0934 12.5306 36.2216 12.4517 36.3729C12.3729 36.5242 12.3126 36.6962 12.2707 36.8887C12.2262 37.0934 12.2089 37.2849 12.2186 37.4632C12.2284 37.6414 12.2585 37.8024 12.3089 37.946C12.3594 38.0897 12.4265 38.2153 12.5104 38.3229C12.5947 38.428 12.6899 38.5125 12.796 38.5764L13.4356 35.6334Z" fill="#131BDE"/>
<path d="M12.6435 32.5373L13.1018 31.5291L13.4424 31.684C13.4121 31.3469 13.4215 31.0429 13.4706 30.7721C13.5208 30.499 13.599 30.2455 13.7053 30.0117C13.8447 29.7051 14.0191 29.442 14.2286 29.2221C14.4359 29.0013 14.6714 28.8357 14.9352 28.7255C15.199 28.6153 15.488 28.5672 15.8022 28.5812C16.1151 28.592 16.4453 28.6763 16.7927 28.8342L18.7681 29.7322L18.3113 30.7369L16.4994 29.9133C16.2792 29.8132 16.0683 29.7557 15.8669 29.7408C15.6642 29.7226 15.4769 29.7457 15.3052 29.8101C15.1322 29.8712 14.9769 29.9719 14.8392 30.112C14.7003 30.2489 14.5838 30.4206 14.4899 30.6272C14.4404 30.7362 14.4006 30.8538 14.3707 30.9799C14.3418 31.1037 14.3236 31.2311 14.3162 31.362C14.3075 31.4895 14.3117 31.6189 14.3289 31.7499C14.3437 31.88 14.3718 32.0051 14.4131 32.1252L17.1208 33.3561L16.6625 34.3642L12.6435 32.5373Z" fill="#131BDE"/>
<path d="M17.4318 27.8744C17.1916 27.6958 16.9989 27.4764 16.8536 27.2161C16.7064 26.9543 16.6172 26.6688 16.5859 26.3597C16.5547 26.0505 16.588 25.7257 16.6859 25.385C16.7852 25.0424 16.9614 24.701 17.2143 24.3607C17.4658 24.0224 17.7431 23.7562 18.0461 23.5618C18.3485 23.364 18.6578 23.2365 18.9738 23.1793C19.2913 23.1201 19.6064 23.1291 19.919 23.2061C20.233 23.2811 20.5262 23.4198 20.7984 23.6222C20.8324 23.6475 20.8687 23.676 20.9073 23.7078C20.9453 23.736 20.9788 23.7641 21.0079 23.7919L18.5167 27.1425C18.6511 27.1834 18.7935 27.1945 18.9441 27.1759C19.0962 27.1553 19.2518 27.1048 19.4111 27.0243C19.5704 26.9438 19.7306 26.8329 19.8916 26.6916C20.0507 26.5487 20.2061 26.3752 20.3579 26.1711C20.5097 25.9669 20.6397 25.7481 20.748 25.5147C20.8542 25.2798 20.9428 25.0457 21.0136 24.8125L21.9154 25.0167C21.8831 25.173 21.8434 25.3268 21.7961 25.4782C21.7483 25.626 21.6901 25.7754 21.6214 25.9264C21.5522 26.0738 21.4717 26.2238 21.3801 26.3763C21.2899 26.5268 21.1868 26.6802 21.0707 26.8363C20.7746 27.2346 20.4669 27.5482 20.1476 27.777C19.8283 28.0058 19.5104 28.1595 19.194 28.2381C18.8775 28.3168 18.5693 28.3238 18.2692 28.2592C17.9691 28.1946 17.69 28.0663 17.4318 27.8744ZM19.6201 24.21C19.4982 24.1691 19.37 24.1514 19.2353 24.157C19.1001 24.159 18.9643 24.187 18.8278 24.241C18.6894 24.2934 18.553 24.3723 18.4188 24.4776C18.2845 24.583 18.1586 24.7147 18.0411 24.8728C17.9161 25.0409 17.8212 25.2082 17.7566 25.3746C17.6919 25.541 17.6529 25.7 17.6396 25.8517C17.6263 26.0034 17.6356 26.1455 17.6676 26.2781C17.701 26.4087 17.7529 26.5249 17.8232 26.6269L19.6201 24.21Z" fill="#131BDE"/>
<path d="M20.1569 21.1439L20.965 20.3867L21.3999 20.8508C21.4538 20.5509 21.5347 20.2597 21.6427 19.9773C21.7508 19.695 21.8792 19.4363 22.028 19.2011L22.9587 19.7185C22.6765 20.041 22.4682 20.3677 22.3339 20.6986C22.1997 21.026 22.151 21.357 22.1877 21.6917L23.9834 23.6083L23.1753 24.3655L20.1569 21.1439Z" fill="#131BDE"/>
<path d="M25.2205 20.6708C25.1053 20.4928 25.0391 20.3054 25.0218 20.1087C25.0044 19.912 25.0393 19.7111 25.1266 19.5062C25.2125 19.2991 25.3523 19.0928 25.5461 18.8872C25.7406 18.6782 25.9918 18.4741 26.2996 18.275C26.5279 18.1273 26.7785 17.989 27.0515 17.8599C27.3266 17.7295 27.6205 17.6121 27.9332 17.5078C27.8469 17.3973 27.7415 17.3125 27.6171 17.2534C27.4914 17.1921 27.351 17.1611 27.196 17.1604C27.0418 17.1562 26.8754 17.1836 26.6968 17.2427C26.5203 17.3005 26.3357 17.3917 26.143 17.5163C26.0383 17.5841 25.9272 17.6649 25.8097 17.7587C25.6921 17.8526 25.5745 17.9554 25.4567 18.0672C25.339 18.1791 25.2263 18.2965 25.1188 18.4195C25.0133 18.5412 24.921 18.6648 24.8417 18.7903L24.0652 18.2099C24.173 18.0689 24.293 17.9259 24.425 17.7811C24.5592 17.6349 24.7005 17.493 24.8491 17.3553C24.9963 17.2155 25.1483 17.083 25.305 16.9579C25.4617 16.8327 25.6185 16.7194 25.7756 16.6178C26.4688 16.1693 27.0984 16.013 27.6645 16.1488C28.2307 16.2846 28.7501 16.718 29.2229 17.4488L30.2674 19.0635L29.3376 19.665L29.112 19.3163C29.0523 19.4351 28.9811 19.557 28.8984 19.6817C28.8178 19.8051 28.7227 19.9291 28.6131 20.0535C28.5034 20.1778 28.3779 20.3006 28.2365 20.4218C28.0985 20.5438 27.9437 20.6603 27.7719 20.7714C27.4829 20.9583 27.2082 21.0915 26.9477 21.1709C26.6892 21.249 26.4508 21.28 26.2324 21.2638C26.014 21.2476 25.819 21.1896 25.6475 21.0897C25.4766 20.9863 25.3343 20.8467 25.2205 20.6708ZM26.1803 20.0053C26.2195 20.0661 26.2732 20.1145 26.3412 20.1508C26.4078 20.1849 26.4899 20.2016 26.5875 20.2009C26.6837 20.198 26.794 20.1757 26.9184 20.1338C27.0435 20.0885 27.1826 20.0164 27.3354 19.9175C27.4988 19.8118 27.6474 19.6949 27.7813 19.5667C27.9152 19.4385 28.0326 19.3076 28.1333 19.1741C28.2341 19.0406 28.3176 18.9079 28.3837 18.7759C28.4499 18.644 28.4969 18.5215 28.5248 18.4085L28.4191 18.2451C28.2509 18.2974 28.0879 18.3554 27.93 18.4189C27.7742 18.4811 27.6276 18.5462 27.4904 18.6142C27.3539 18.6787 27.2271 18.7444 27.11 18.8113C26.9949 18.8768 26.8955 18.9367 26.8117 18.9908C26.6379 19.1033 26.5009 19.2083 26.4006 19.3058C26.3003 19.4034 26.2274 19.4951 26.182 19.5809C26.1351 19.6647 26.114 19.7422 26.1186 19.8135C26.1231 19.8849 26.1437 19.9488 26.1803 20.0053Z" fill="#131BDE"/>
<path d="M30.6109 15.1306L29.6269 15.5415L29.3069 14.7751L30.2908 14.3642L29.7618 13.0972L30.7837 12.6705L31.3127 13.9375L32.2966 13.5267L32.6167 14.2931L31.6328 14.7039L33.0138 18.0113L31.9919 18.438L30.6109 15.1306Z" fill="#131BDE"/>
<path d="M34.4067 15.1375C34.3423 14.8452 34.3405 14.5532 34.4014 14.2614C34.4617 13.9672 34.5813 13.6931 34.7603 13.4391C34.9393 13.1851 35.1774 12.9615 35.4745 12.7683C35.774 12.5746 36.1308 12.4321 36.5449 12.3409C36.9565 12.2501 37.3404 12.2307 37.6966 12.2824C38.0547 12.3312 38.3719 12.4375 38.6481 12.6014C38.9267 12.7648 39.1589 12.9779 39.3445 13.2409C39.5326 13.5034 39.6632 13.8003 39.7362 14.1315C39.7453 14.173 39.754 14.2183 39.7623 14.2675C39.7725 14.3138 39.7795 14.357 39.7832 14.397L35.7058 15.2956C35.7805 15.4145 35.8809 15.5163 36.0068 15.6009C36.1351 15.685 36.2858 15.7488 36.4589 15.7924C36.632 15.836 36.8256 15.8572 37.0399 15.8559C37.2536 15.8522 37.4847 15.823 37.7332 15.7683C37.9816 15.7135 38.2232 15.6335 38.4579 15.5281C38.6921 15.4203 38.9124 15.3015 39.1188 15.1717L39.6661 15.9169C39.5393 16.0138 39.4085 16.104 39.2736 16.1873C39.1407 16.2677 38.9988 16.3424 38.848 16.4114C38.6991 16.4774 38.54 16.538 38.3708 16.5932C38.2041 16.6478 38.0257 16.696 37.8357 16.7379C37.351 16.8447 36.9131 16.8799 36.522 16.8435C36.1309 16.8072 35.79 16.715 35.4995 16.567C35.2089 16.4191 34.9715 16.2224 34.7871 15.977C34.6028 15.7315 34.476 15.4517 34.4067 15.1375ZM38.4609 13.8035C38.3957 13.6927 38.3104 13.5953 38.205 13.5112C38.1015 13.4242 37.9806 13.3564 37.8422 13.3077C37.7032 13.2566 37.5485 13.2268 37.3781 13.2184C37.2077 13.21 37.0262 13.227 36.8338 13.2694C36.6292 13.3145 36.448 13.3787 36.2901 13.462C36.1323 13.5454 35.9986 13.6399 35.8891 13.7458C35.7796 13.8517 35.6935 13.9651 35.6308 14.0862C35.5706 14.2068 35.5336 14.3286 35.5198 14.4516L38.4609 13.8035Z" fill="#131BDE"/>
<path d="M40.6121 14.0181C40.6106 13.6664 40.6753 13.3494 40.8063 13.067C40.9373 12.7821 41.1183 12.5394 41.3494 12.3388C41.583 12.1358 41.8592 11.98 42.178 11.8714C42.4993 11.7603 42.847 11.7039 43.2211 11.7023C43.3807 11.7017 43.5379 11.711 43.6926 11.7303C43.8499 11.7496 43.9996 11.7764 44.1419 11.8107C44.2867 11.845 44.4216 11.8868 44.5465 11.9361C44.6739 11.983 44.7864 12.0349 44.8839 12.0918L44.8749 9.9818L45.9823 9.97709L46.0087 16.1838L44.9013 16.1885L44.8996 15.7732C44.8026 15.841 44.6881 15.9051 44.5562 15.9655C44.4242 16.0259 44.2823 16.0789 44.1304 16.1244C43.9784 16.17 43.8202 16.2056 43.6557 16.2312C43.4937 16.2593 43.3328 16.2737 43.1732 16.2744C42.7991 16.276 42.4547 16.2226 42.1399 16.1142C41.8277 16.0058 41.5589 15.8523 41.3336 15.6537C41.1083 15.4551 40.9314 15.2177 40.8031 14.9414C40.6772 14.6625 40.6135 14.3548 40.6121 14.0181ZM41.7756 14.0131C41.7763 14.1902 41.812 14.3572 41.8825 14.514C41.9555 14.6708 42.0583 14.8088 42.191 14.928C42.3262 15.0446 42.4875 15.1375 42.6748 15.2065C42.8647 15.273 43.0768 15.3058 43.3113 15.3048C43.4609 15.3042 43.6105 15.2898 43.76 15.2618C43.9096 15.2312 44.0528 15.1894 44.1898 15.1365C44.3292 15.0835 44.4586 15.0193 44.578 14.944C44.6999 14.8687 44.8056 14.7847 44.895 14.692L44.8885 13.1618C44.7758 13.0725 44.657 12.997 44.5321 12.9351C44.4071 12.8733 44.2797 12.8227 44.1498 12.7834C44.0199 12.744 43.8889 12.7159 43.7566 12.699C43.6243 12.6796 43.4959 12.6702 43.3711 12.6707C43.1167 12.6718 42.8899 12.7077 42.6907 12.7783C42.4939 12.8465 42.3272 12.9408 42.1906 13.0611C42.0564 13.1814 41.9535 13.3227 41.8818 13.4852C41.8102 13.6476 41.7748 13.8236 41.7756 14.0131Z" fill="#131BDE"/>
<path d="M51.5073 13.7817L50.7821 13.5693L51.0156 12.7722L51.7408 12.9847C51.825 12.6974 51.9403 12.4544 52.0869 12.2557C52.2342 12.0545 52.4069 11.8998 52.605 11.7915C52.8061 11.6815 53.0287 11.618 53.2728 11.6011C53.5192 11.585 53.7813 11.6176 54.0589 11.6989C54.2528 11.7557 54.4375 11.8306 54.613 11.9236C54.7891 12.0142 54.9389 12.1152 55.0621 12.2267L54.4233 13.0103C54.3756 12.9599 54.3034 12.905 54.2065 12.8454C54.112 12.7865 54.0025 12.7388 53.878 12.7024C53.6339 12.6309 53.4161 12.6424 53.2246 12.7371C53.0362 12.83 52.8959 13.0163 52.8036 13.296L54.1428 13.6883L53.9093 14.4854L52.5701 14.093L51.5625 17.5326L50.4997 17.2213L51.5073 13.7817Z" fill="#131BDE"/>
<path d="M55.7151 14.3726L56.7218 14.8338L56.4569 15.412C56.755 15.3483 57.0551 15.3129 57.3574 15.306C57.6596 15.299 57.9477 15.3199 58.2217 15.3686L58.0953 16.4259C57.6899 16.2868 57.3086 16.2178 56.9515 16.2188C56.5977 16.2186 56.2729 16.2989 55.977 16.4596L54.8832 18.8473L53.8764 18.3861L55.7151 14.3726Z" fill="#131BDE"/>
<path d="M58.4902 18.1786C58.6712 17.9186 58.893 17.7114 59.1556 17.5569C59.4202 17.4038 59.7089 17.31 60.0216 17.2755C60.3364 17.2424 60.6662 17.2729 61.0109 17.3671C61.3577 17.4627 61.7041 17.6309 62.05 17.8718C62.3959 18.1126 62.6728 18.3784 62.8808 18.669C63.0907 18.9611 63.2338 19.2598 63.31 19.5651C63.3882 19.8718 63.4004 20.1751 63.3466 20.475C63.2948 20.7763 63.1784 21.0569 62.9974 21.3169C62.8164 21.5768 62.5936 21.7833 62.329 21.9364C62.0664 22.0909 61.7777 22.1847 61.4629 22.2178C61.1502 22.2523 60.8204 22.2218 60.4736 22.1262C60.1289 22.032 59.7835 21.8645 59.4376 21.6237C59.0917 21.3828 58.8138 21.1164 58.6038 20.8243C58.3959 20.5336 58.2528 20.2349 58.1746 19.9282C58.0984 19.623 58.0862 19.3197 58.138 19.0183C58.1918 18.7185 58.3092 18.4385 58.4902 18.1786ZM59.4451 18.8434C59.3439 18.9888 59.2763 19.1469 59.2424 19.3178C59.212 19.4881 59.2171 19.6618 59.2578 19.8391C59.302 20.0157 59.3833 20.1893 59.5016 20.3598C59.6234 20.5297 59.7866 20.6859 59.9913 20.8285C60.196 20.971 60.3981 21.0692 60.5977 21.123C60.8007 21.1763 60.9917 21.1922 61.1706 21.1709C61.3531 21.149 61.5178 21.0935 61.6649 21.0045C61.8155 20.9148 61.9414 20.7973 62.0426 20.652C62.1437 20.5067 62.2103 20.3478 62.2421 20.1755C62.276 20.0046 62.2709 19.8308 62.2267 19.6542C62.186 19.4769 62.1048 19.3034 61.983 19.1335C61.8646 18.9629 61.7031 18.8064 61.4984 18.6639C61.2938 18.5214 61.0899 18.4235 60.8869 18.3703C60.6873 18.3164 60.4963 18.3004 60.3139 18.3224C60.135 18.3436 59.9702 18.3991 59.8196 18.4888C59.6711 18.5799 59.5463 18.6981 59.4451 18.8434Z" fill="#131BDE"/>
<path d="M65.6117 20.7417L66.3278 21.5865L66.0424 21.8284C66.3508 21.9299 66.6144 22.0596 66.8332 22.2174C67.0555 22.3756 67.2481 22.5507 67.411 22.7429C67.6384 23.0112 67.8044 23.2938 67.9091 23.5909C68.0138 23.888 68.0473 24.1898 68.0096 24.4964C68.2096 24.5395 68.3927 24.5935 68.559 24.6585C68.7272 24.7219 68.8821 24.7966 69.0236 24.8826C69.1671 24.967 69.2998 25.0638 69.4217 25.173C69.5456 25.2805 69.6632 25.3999 69.7744 25.5312C70.0083 25.8071 70.1823 26.0895 70.2965 26.3785C70.4126 26.6659 70.4634 26.9515 70.4488 27.2352C70.4359 27.5208 70.3544 27.8008 70.2044 28.0751C70.0579 28.3497 69.839 28.6104 69.5479 28.8571L67.8927 30.2602L67.179 29.4183L68.6973 28.1313C68.8819 27.9749 69.0239 27.8088 69.1233 27.6329C69.2263 27.4574 69.2869 27.2801 69.3052 27.1011C69.327 26.9224 69.308 26.7456 69.2481 26.5708C69.1917 26.3963 69.0974 26.231 68.9651 26.075C68.8925 25.9894 68.8098 25.9091 68.7169 25.8342C68.6258 25.7577 68.5269 25.6911 68.4201 25.6345C68.3149 25.5798 68.2042 25.538 68.088 25.5089C67.9738 25.4783 67.8581 25.4652 67.7409 25.4697L65.4663 27.3977L64.7527 26.5558L66.271 25.2688C66.4555 25.1124 66.5975 24.9463 66.697 24.7704C66.7999 24.5949 66.8605 24.4176 66.8788 24.2386C66.9007 24.0599 66.8808 23.8822 66.8193 23.7054C66.7613 23.529 66.6653 23.3618 66.5315 23.2039C66.4492 23.1069 66.3557 23.0178 66.2509 22.9366C66.1497 22.8557 66.0422 22.7849 65.9287 22.7242C65.8167 22.6654 65.7012 22.6178 65.5821 22.5815C65.4646 22.547 65.3469 22.5258 65.229 22.5178L62.9601 24.441L62.2441 23.5963L65.6117 20.7417Z" fill="#131BDE"/>
<path d="M70.8619 32.3062C71.1613 32.2027 71.4626 32.1657 71.7658 32.1954C72.0699 32.2275 72.3584 32.3216 72.6315 32.4779C72.9055 32.6364 73.154 32.8553 73.3773 33.1343C73.6013 33.4158 73.7823 33.7556 73.9201 34.154C74.0579 34.5523 74.1253 34.9302 74.1222 35.2875C74.12 35.6472 74.0598 35.9729 73.9416 36.2645C73.8243 36.5585 73.6556 36.8108 73.4355 37.0216C73.2163 37.2346 72.957 37.393 72.6577 37.4965C72.3583 37.6001 72.0566 37.6359 71.7526 37.6038C71.4493 37.5741 71.1608 37.48 70.8868 37.3214C70.6137 37.1652 70.3652 36.9463 70.1411 36.6649C69.9179 36.3858 69.7373 36.0471 69.5995 35.6488C69.4617 35.2504 69.3939 34.8714 69.3962 34.5117C69.3992 34.1544 69.4594 33.8287 69.5768 33.5347C69.6949 33.2431 69.8636 32.9908 70.0828 32.7777C70.3029 32.567 70.5626 32.4098 70.8619 32.3062ZM71.2424 33.4058C71.075 33.4637 70.9273 33.5518 70.7993 33.67C70.6745 33.7897 70.5763 33.9332 70.5048 34.1004C70.4366 34.2692 70.4 34.4573 70.3953 34.6648C70.3937 34.8739 70.4337 35.0963 70.5153 35.332C70.5968 35.5677 70.7024 35.766 70.832 35.9271C70.9648 36.0896 71.1097 36.215 71.2669 36.3031C71.4273 36.3928 71.5931 36.4449 71.7644 36.4596C71.9389 36.4757 72.1099 36.4549 72.2772 36.397C72.4446 36.3391 72.5919 36.2498 72.7191 36.1293C72.8471 36.0111 72.9452 35.8676 73.0135 35.6988C73.085 35.5316 73.1215 35.3434 73.1231 35.1344C73.1278 34.9269 73.0894 34.7053 73.0079 34.4696C72.9263 34.2339 72.8192 34.0347 72.6864 33.8722C72.5568 33.7112 72.4118 33.5858 72.2515 33.4961C72.0943 33.408 71.9284 33.3558 71.7539 33.3397C71.5802 33.3259 71.4097 33.3479 71.2424 33.4058Z" fill="#131BDE"/>
<path d="M76.6755 38.0889L76.8645 39.18L70.7487 40.239L70.5598 39.1479L76.6755 38.0889Z" fill="#131BDE"/>
<path d="M73.1898 41.7066C73.5415 41.7032 73.8589 41.7661 74.142 41.8956C74.4277 42.0249 74.6714 42.2046 74.8732 42.4346C75.0775 42.6671 75.2348 42.9424 75.3452 43.2606C75.4581 43.5812 75.5164 43.9286 75.5201 44.3027C75.5217 44.4623 75.5132 44.6196 75.4948 44.7744C75.4764 44.9317 75.4504 45.0816 75.4169 45.2241C75.3834 45.3691 75.3423 45.5042 75.2937 45.6294C75.2476 45.7571 75.1963 45.8698 75.1399 45.9677L77.2498 45.9469L77.2607 47.0543L71.0543 47.1153L71.0434 46.0079L71.4587 46.0038C71.3904 45.9072 71.3256 45.7931 71.2645 45.6615C71.2033 45.5299 71.1495 45.3883 71.1032 45.2366C71.0568 45.0849 71.0203 44.9269 70.9937 44.7625C70.9647 44.6007 70.9494 44.4399 70.9478 44.2803C70.9442 43.9062 70.9956 43.5615 71.1023 43.2462C71.209 42.9333 71.361 42.6637 71.5583 42.4373C71.7556 42.2109 71.9921 42.0327 72.2676 41.9028C72.5457 41.7753 72.8532 41.7099 73.1898 41.7066ZM73.2013 42.8701C73.0242 42.8718 72.8575 42.9084 72.701 42.9798C72.5446 43.0536 72.4072 43.1573 72.2888 43.2906C72.1729 43.4265 72.0809 43.5882 72.0129 43.776C71.9475 43.9662 71.9159 44.1785 71.9182 44.413C71.9196 44.5626 71.9348 44.7121 71.9637 44.8615C71.9951 45.0108 72.0377 45.1538 72.0914 45.2905C72.1452 45.4296 72.2101 45.5587 72.2861 45.6777C72.3621 45.7992 72.4467 45.9043 72.5398 45.9932L74.0699 45.9782C74.1586 45.8651 74.2335 45.7458 74.2946 45.6205C74.3558 45.4952 74.4056 45.3675 74.4443 45.2374C74.4829 45.1073 74.5103 44.9761 74.5265 44.8438C74.5451 44.7114 74.5538 44.5828 74.5526 44.4581C74.5501 44.2038 74.5129 43.9771 74.4412 43.7783C74.3719 43.5819 74.2767 43.4157 74.1556 43.2798C74.0346 43.1463 73.8927 43.0441 73.7298 42.9734C73.567 42.9027 73.3908 42.8682 73.2013 42.8701Z" fill="#131BDE"/>
<path d="M72.3977 51.5043C72.707 51.6017 72.9773 51.7482 73.2085 51.9439C73.4414 52.1427 73.6214 52.381 73.7483 52.6589C73.8769 52.94 73.9477 53.2551 73.9606 53.6043C73.9729 53.956 73.9153 54.334 73.7881 54.7384C73.7326 54.9145 73.6662 55.0884 73.5886 55.2601C73.511 55.4318 73.4262 55.5933 73.3341 55.7448C73.2436 55.8993 73.1481 56.0405 73.0477 56.1685C72.9497 56.2971 72.8518 56.4049 72.7538 56.4917L72.1119 55.7523C72.2916 55.5552 72.439 55.3611 72.5541 55.1698C72.6684 54.9809 72.7589 54.7806 72.8256 54.5689C72.902 54.3262 72.9383 54.0984 72.9348 53.8855C72.9336 53.6733 72.8972 53.4814 72.8257 53.3099C72.7558 53.1415 72.6548 52.9972 72.5226 52.8772C72.392 52.7603 72.2363 52.6734 72.0555 52.6165C71.8747 52.5595 71.6954 52.5436 71.5175 52.5687C71.3413 52.5969 71.1759 52.6612 71.0214 52.7617C70.8686 52.8652 70.7297 53.0032 70.6048 53.1757C70.4815 53.3513 70.3825 53.5581 70.3076 53.796C70.2252 54.0577 70.1846 54.3156 70.1857 54.5696C70.1861 54.8259 70.2167 55.0735 70.2775 55.3123L69.3278 55.5507C69.2914 55.4007 69.2631 55.2414 69.2429 55.0729C69.2251 54.9052 69.2189 54.7294 69.2245 54.5455C69.2294 54.364 69.2479 54.1763 69.2801 53.9825C69.3092 53.7903 69.3549 53.5955 69.417 53.3981C69.5436 52.996 69.7117 52.6528 69.9215 52.3684C70.1313 52.0841 70.3673 51.8616 70.6297 51.701C70.8944 51.5411 71.1775 51.4433 71.479 51.4074C71.7798 51.3739 72.086 51.4063 72.3977 51.5043Z" fill="#131BDE"/>
<path d="M73.8396 59.1064L73.3499 60.0997L67.7829 57.3552L68.2726 56.3619L73.8396 59.1064Z" fill="#131BDE"/>
<path d="M68.8639 60.0504C69.1218 60.2343 69.3265 60.4585 69.478 60.7228C69.6281 60.9892 69.7186 61.2789 69.7495 61.592C69.7789 61.9072 69.7446 62.2366 69.6465 62.5802C69.547 62.9259 69.3748 63.2703 69.13 63.6135C68.8853 63.9566 68.6163 64.2305 68.3233 64.435C68.0289 64.6417 67.7286 64.7813 67.4224 64.854C67.1149 64.9287 66.8114 64.9374 66.5122 64.8802C66.2115 64.825 65.9322 64.7054 65.6743 64.5214C65.4165 64.3375 65.2125 64.1123 65.0625 63.8459C64.9109 63.5816 64.8205 63.2919 64.791 62.9767C64.7601 62.6636 64.7944 62.3342 64.8939 61.9885C64.992 61.6449 65.1634 61.3015 65.4082 60.9583C65.653 60.6152 65.9227 60.3403 66.2171 60.1337C66.5101 59.9291 66.8104 59.7895 67.118 59.7148C67.4241 59.6421 67.7276 59.6334 68.0283 59.6886C68.3275 59.7458 68.6061 59.8664 68.8639 60.0504ZM68.1882 60.9976C68.0441 60.8947 67.8867 60.8254 67.7162 60.7895C67.5463 60.7572 67.3725 60.7603 67.1948 60.799C67.0176 60.8411 66.8431 60.9204 66.6713 61.0367C66.5 61.1566 66.3419 61.318 66.1971 61.5211C66.0522 61.7241 65.9517 61.9251 65.8956 62.1241C65.84 62.3265 65.8219 62.5173 65.8411 62.6964C65.861 62.8791 65.9145 63.0445 66.0019 63.1926C66.0899 63.3442 66.2059 63.4714 66.3501 63.5742C66.4942 63.6771 66.6523 63.7454 66.8242 63.7792C66.9947 63.8151 67.1686 63.8119 67.3457 63.7698C67.5234 63.7311 67.6979 63.6518 67.8692 63.532C68.0411 63.4156 68.1994 63.2559 68.3443 63.0529C68.4891 62.8498 68.5893 62.6471 68.6449 62.4447C68.701 62.2458 68.7191 62.055 68.6993 61.8723C68.6801 61.6931 68.6265 61.5278 68.5385 61.3762C68.4492 61.2266 68.3324 61.1004 68.1882 60.9976Z" fill="#131BDE"/>
<path d="M65.1948 66.7576L65.9584 66.0134L66.5381 66.6082L65.7744 67.3524L66.7327 68.3357L65.9396 69.1086L64.9813 68.1253L64.2177 68.8695L63.638 68.2746L64.4017 67.5305L61.9002 64.9636L62.6933 64.1907L65.1948 66.7576Z" fill="#131BDE"/>
<path d="M63.7166 71.5649L62.7987 72.1846L61.6096 70.4234C61.4886 70.6586 61.3312 70.8868 61.1374 71.1079C60.9415 71.3304 60.7134 71.5296 60.4529 71.7055C60.1511 71.9092 59.8503 72.0476 59.5505 72.1206C59.2486 72.195 58.9575 72.205 58.677 72.1506C58.3979 72.0983 58.1336 71.9833 57.8843 71.8056C57.6328 71.6293 57.4066 71.3923 57.2056 71.0946L55.9914 69.2962L56.9061 68.6787L58.0952 70.4399C58.2124 70.6135 58.3471 70.7528 58.4992 70.8577C58.6527 70.9648 58.8181 71.0337 58.9954 71.0644C59.1727 71.0952 59.3577 71.0862 59.5504 71.0373C59.7424 70.9919 59.9356 70.9036 60.1299 70.7724C60.3635 70.6147 60.5554 70.431 60.7057 70.2212C60.856 70.0114 60.9682 69.7987 61.0423 69.5831L59.3278 67.0436L60.2456 66.424L63.7166 71.5649Z" fill="#131BDE"/>
<path d="M56.1962 71.5534C56.3075 71.8313 56.357 72.1191 56.3447 72.4169C56.3334 72.717 56.2601 73.007 56.1251 73.2869C55.99 73.5667 55.7918 73.8262 55.5302 74.0654C55.2664 74.3055 54.9377 74.5044 54.5441 74.6621C54.1529 74.8189 53.7773 74.9009 53.4174 74.9081C53.0562 74.9186 52.7259 74.8655 52.4266 74.749C52.1251 74.6335 51.8612 74.4611 51.635 74.232C51.4065 74.0038 51.2291 73.7323 51.103 73.4174C51.0872 73.3781 51.0712 73.3348 51.0549 73.2876C51.0373 73.2436 51.0234 73.2021 51.0132 73.1632L54.8887 71.6099C54.7955 71.5048 54.6799 71.4209 54.5419 71.358C54.4015 71.296 54.2424 71.2577 54.0645 71.243C53.8866 71.2283 53.6921 71.2391 53.4809 71.2753C53.2707 71.3139 53.0475 71.3805 52.8114 71.4752C52.5752 71.5698 52.35 71.6883 52.1356 71.8307C51.9222 71.9753 51.7243 72.1285 51.5419 72.2903L50.8801 71.6446C50.9893 71.5283 51.1037 71.418 51.2231 71.3137C51.3411 71.2127 51.4689 71.1158 51.6064 71.023C51.7425 70.9336 51.8895 70.8478 52.0474 70.7657C52.2029 70.6845 52.371 70.6078 52.5516 70.5354C53.0123 70.3507 53.4385 70.2444 53.8304 70.2163C54.2222 70.1883 54.5735 70.2234 54.8843 70.3219C55.1952 70.4203 55.4616 70.5755 55.6836 70.7875C55.9056 70.9995 56.0765 71.2548 56.1962 71.5534ZM52.4147 73.5326C52.4972 73.6312 52.5973 73.7133 52.715 73.779C52.8313 73.8479 52.9617 73.8951 53.1062 73.9204C53.2517 73.9481 53.4091 73.9522 53.5786 73.9326C53.7481 73.9131 53.9243 73.8666 54.1072 73.7933C54.3017 73.7154 54.47 73.6224 54.6121 73.5144C54.7542 73.4064 54.8706 73.2912 54.9613 73.1689C55.052 73.0465 55.1184 72.9205 55.1605 72.7908C55.2002 72.662 55.2168 72.5358 55.2102 72.4121L52.4147 73.5326Z" fill="#131BDE"/>
<path d="M49.5971 72.925C49.2709 72.801 48.9235 72.7288 48.555 72.7086C48.1866 72.6884 47.817 72.7114 47.4462 72.7778C47.1958 72.8226 46.9902 72.8771 46.8294 72.9413C46.6686 73.0056 46.5427 73.0737 46.4517 73.1457C46.3607 73.2177 46.3004 73.2919 46.271 73.3681C46.2416 73.4443 46.2332 73.518 46.246 73.5892C46.2644 73.6923 46.3256 73.7726 46.4297 73.83C46.5312 73.8878 46.6851 73.8983 46.8914 73.8614C46.9871 73.8443 47.0891 73.8197 47.1974 73.7876C47.3057 73.7556 47.4199 73.7212 47.54 73.6845C47.6581 73.6507 47.7824 73.6158 47.9128 73.5798C48.0407 73.5443 48.1722 73.5144 48.3072 73.4903C48.6018 73.4376 48.8592 73.4244 49.0793 73.4509C49.297 73.4779 49.4808 73.535 49.6306 73.6222C49.7805 73.7094 49.8983 73.8226 49.9841 73.9618C50.0702 74.1035 50.1289 74.2615 50.1601 74.4358C50.1996 74.6568 50.1845 74.8698 50.1148 75.0748C50.045 75.2798 49.9265 75.467 49.7592 75.6363C49.5923 75.8081 49.3806 75.9562 49.1241 76.0806C48.8652 76.2055 48.5688 76.2978 48.2349 76.3575C48.0606 76.3887 47.8769 76.4101 47.6839 76.4219C47.4889 76.4365 47.2962 76.4431 47.106 76.4417C46.9157 76.4402 46.7316 76.4313 46.5539 76.415C46.3766 76.4011 46.2182 76.38 46.0789 76.3518L46.2698 75.4434C46.5657 75.4969 46.8577 75.5283 47.1456 75.5376C47.4316 75.5498 47.7207 75.5297 48.0128 75.4775C48.2166 75.441 48.3869 75.3941 48.5235 75.3367C48.6582 75.2822 48.7651 75.2213 48.8443 75.1539C48.9239 75.089 48.9786 75.0196 49.0085 74.9459C49.0364 74.875 49.0439 74.804 49.0312 74.7328C49.022 74.6812 49.0038 74.6363 48.9767 74.5981C48.9471 74.5603 48.9062 74.5296 48.8538 74.5061C48.7994 74.4854 48.7327 74.4733 48.6535 74.4697C48.5723 74.469 48.4752 74.4788 48.3623 74.499C48.2592 74.5174 48.151 74.5431 48.0378 74.576C47.9246 74.609 47.8065 74.6428 47.6835 74.6774C47.5609 74.7146 47.4344 74.7511 47.304 74.7871C47.1712 74.8236 47.0348 74.8543 46.8949 74.8793C46.6346 74.9259 46.402 74.9359 46.1971 74.9092C45.9897 74.8829 45.8123 74.826 45.6648 74.7384C45.5174 74.6507 45.3983 74.5377 45.3077 74.3994C45.2171 74.261 45.156 74.1035 45.1243 73.9267C45.0835 73.6984 45.0983 73.4765 45.1687 73.2612C45.2391 73.0459 45.3657 72.8472 45.5485 72.665C45.7317 72.4853 45.972 72.327 46.2693 72.1902C46.5642 72.0538 46.9154 71.9492 47.3229 71.8762C47.5734 71.8314 47.8181 71.8041 48.057 71.7943C48.2955 71.7821 48.525 71.7828 48.7453 71.7966C48.9661 71.8128 49.1762 71.8399 49.3755 71.8777C49.5724 71.9159 49.7542 71.962 49.9209 72.0157L49.5971 72.925Z" fill="#131BDE"/>
<path d="M49.3235 52.0882L49.3641 51.9368C50.7925 51.7347 52.0405 50.6858 52.4437 49.1813L55.0066 39.6164C55.2638 38.6565 55.1365 37.6358 54.6526 36.7786C54.1688 35.9215 53.3681 35.2983 52.4267 35.046L43.1429 32.5585C42.3924 32.3574 41.5962 32.4039 40.8686 32.6915C40.141 32.979 39.5195 33.4928 39.0934 34.1589L38.8738 34.1001C37.8777 33.8332 36.9344 33.9636 36.1623 34.5122C35.4136 35.0433 34.9339 35.8899 34.6755 36.8543L32.0646 46.5984C31.7483 47.7788 31.8819 48.9533 32.4712 49.93C33.0604 50.9031 34.0522 51.6009 35.3159 51.9395L39.5973 53.0867L44.0477 54.2851L44.0499 54.2857C45.1144 54.5769 46.2317 54.6316 47.1941 54.3166C48.1952 53.9881 49.0102 53.2575 49.3235 52.0882ZM38.4262 35.7705L38.4743 35.7834L36.0609 44.7903C35.8037 45.7502 35.931 46.771 36.4148 47.6281C36.8987 48.4852 37.6994 49.1084 38.6408 49.3607L47.6471 51.7739C47.4874 52.2301 47.165 52.516 46.6877 52.6722C46.1318 52.8551 45.3635 52.8521 44.504 52.6171L44.4996 52.6159L40.0427 51.4157L35.7635 50.2691C34.8428 50.0224 34.2465 49.5523 33.9221 49.0154C33.599 48.4824 33.497 47.8058 33.7029 47.0374L36.3138 37.2932C36.5033 36.5861 36.8069 36.1518 37.1254 35.9245C37.4215 35.715 37.8321 35.6113 38.4262 35.7705ZM45.1262 37.2674L50.2901 38.651C50.5074 38.7092 50.6921 38.8531 50.8038 39.0509C50.9154 39.2487 50.9448 39.4842 50.8855 39.7057L49.4744 44.972C49.415 45.1935 49.2718 45.3829 49.0762 45.4983C48.8806 45.6138 48.6487 45.646 48.4314 45.5877C48.2142 45.5295 48.0294 45.3857 47.9177 45.1879C47.8061 44.9901 47.7767 44.7546 47.8361 44.533L48.7071 41.2824L41.4481 45.5678C41.3512 45.6273 41.2437 45.6666 41.132 45.6836C41.0204 45.7005 40.9067 45.6947 40.7977 45.6665C40.6887 45.6382 40.5865 45.5882 40.4971 45.5191C40.4077 45.4501 40.3329 45.3636 40.2771 45.2645C40.2212 45.1655 40.1854 45.0559 40.1718 44.9422C40.1582 44.8285 40.167 44.713 40.1977 44.6024C40.2284 44.4917 40.2804 44.3882 40.3507 44.2978C40.421 44.2075 40.5081 44.1321 40.607 44.0761L47.8656 39.7918L44.6786 38.9378C44.4613 38.8796 44.2765 38.7357 44.1649 38.538C44.0532 38.3402 44.0239 38.1046 44.0832 37.8831C44.1426 37.6616 44.2858 37.4723 44.4814 37.3568C44.677 37.2413 44.9089 37.2091 45.1262 37.2674Z" fill="#131BDE"/>
</svg>
