<svg width="330" height="191" viewBox="0 0 330 191" fill="none" xmlns="http://www.w3.org/2000/svg">
<g style="mix-blend-mode:hard-light" filter="url(#filter0_ddi_117_238)">
<path d="M45.9054 22.6631C36.5703 24.2577 30.2881 33.0917 31.8773 42.3953C33.1602 49.9055 39.1633 67.2247 71.3624 80.2688C71.9386 80.4992 72.5663 80.5658 73.177 80.4615C73.7876 80.3572 74.3576 80.086 74.8246 79.6774C100.868 56.6846 100.782 38.3547 99.499 30.8445C97.9098 21.5409 89.0515 15.2931 79.7163 16.8877C70.3811 18.4823 64.5547 29.9842 64.5547 29.9842C64.5547 29.9842 55.2406 21.0685 45.9054 22.6631Z" stroke="#B5CA8D" stroke-width="7" stroke-linecap="round" stroke-linejoin="round"/>
</g>
<g clip-path="url(#clip0_117_238)">
<path d="M42 101.234C50.6503 110.674 64.5794 116.808 76.9157 110.604C81.8626 108.116 87.3739 102.866 87.5536 96.9013C87.6677 93.1142 83.3646 90.5476 80.4155 93.4662C77.1109 96.7367 79.1162 103.429 80.5712 106.934C89.4933 128.423 112.798 140.493 132.7 149.591C163.375 163.614 196.496 173.471 229.969 177.784C244.201 179.618 255.19 180.334 269.222 178.94C273.354 178.53 277.473 177.815 281.478 176.724C296.083 172.743 282.81 175.001 294.334 170.146" stroke="#F4F4F3" stroke-linecap="round"/>
</g>
<rect x="214" y="129" width="115.615" height="54" fill="#131BDE"/>
<path d="M236.766 152.685C238.632 152.685 240.107 152.909 241.189 153.358C242.271 153.797 243.025 154.411 243.452 155.202C243.889 155.982 244.108 156.943 244.108 158.084C244.108 159.167 243.859 160.113 243.363 160.923C242.867 161.733 242.122 162.362 241.129 162.811C240.136 163.25 238.915 163.469 237.466 163.469C236.582 163.469 235.683 163.469 234.77 163.469C233.857 163.469 232.933 163.464 232 163.454C232.079 161.533 232.119 159.743 232.119 158.084C232.119 156.406 232.079 154.655 232 152.831C233.181 152.734 234.77 152.685 236.766 152.685ZM237.883 160.557C238.806 160.557 239.421 160.338 239.729 159.899C240.037 159.46 240.191 158.855 240.191 158.084C240.191 157.343 240.027 156.743 239.699 156.284C239.382 155.826 238.776 155.597 237.883 155.597C236.92 155.597 236.2 155.626 235.723 155.684V160.557H237.883Z" fill="#FFC700"/>
<path d="M251.92 163.615C249.646 163.615 247.973 163.132 246.901 162.167C245.829 161.191 245.293 159.826 245.293 158.07C245.293 156.333 245.824 154.977 246.886 154.002C247.959 153.026 249.636 152.538 251.92 152.538C254.213 152.538 255.891 153.026 256.954 154.002C258.026 154.977 258.562 156.333 258.562 158.07C258.562 159.835 258.031 161.201 256.969 162.167C255.906 163.132 254.223 163.615 251.92 163.615ZM251.92 160.63C253.022 160.63 253.816 160.425 254.303 160.016C254.789 159.596 255.033 158.948 255.033 158.07C255.033 157.211 254.789 156.572 254.303 156.153C253.816 155.733 253.022 155.524 251.92 155.524C250.828 155.524 250.039 155.733 249.552 156.153C249.066 156.572 248.822 157.211 248.822 158.07C248.822 158.938 249.066 159.582 249.552 160.001C250.039 160.421 250.828 160.63 251.92 160.63Z" fill="#FFC700"/>
<path d="M272.244 152.86C272.174 154.509 272.14 156.275 272.14 158.157C272.14 160.05 272.174 161.82 272.244 163.469H266.912L263.308 155.48L263.576 163.469H259.749C259.828 161.577 259.868 159.806 259.868 158.157C259.868 156.519 259.828 154.753 259.749 152.86H265.229L268.848 161.069L268.595 152.86H272.244Z" fill="#FFC700"/>
<path d="M282.832 163.469C282.643 162.913 282.39 162.216 282.072 161.377H277.321L276.577 163.469H272.839L277.009 152.846H282.489L286.689 163.469H282.832ZM281.223 159.094C280.846 158.07 280.459 157.045 280.062 156.021L279.704 155.07C279.357 155.958 278.845 157.299 278.17 159.094H281.223Z" fill="#FFC700"/>
<path d="M299.389 155.919C297.83 155.87 296.316 155.841 294.847 155.831V163.469H291.124V155.831C289.644 155.841 288.135 155.87 286.596 155.919V152.846H299.389V155.919Z" fill="#FFC700"/>
<path d="M304.102 160.791C307.875 160.772 310.61 160.718 312.308 160.63C312.238 161.03 312.194 161.445 312.174 161.874C312.164 162.294 312.159 162.825 312.159 163.469H300.587C300.667 161.577 300.706 159.806 300.706 158.157C300.706 156.509 300.667 154.738 300.587 152.846H312.159V155.494H304.102V156.899C304.578 156.909 305.283 156.914 306.217 156.914C307.795 156.914 309.428 156.884 311.116 156.826V159.343C309.428 159.284 307.795 159.255 306.217 159.255C305.283 159.255 304.578 159.26 304.102 159.269V160.791Z" fill="#FFC700"/>
<mask id="mask0_117_238" style="mask-type:alpha" maskUnits="userSpaceOnUse" x="232" y="161" width="81" height="13">
<path d="M236.753 161.706C238.614 161.706 240.085 161.941 241.164 162.411C242.243 162.871 242.996 163.516 243.421 164.344C243.857 165.162 244.075 166.17 244.075 167.366C244.075 168.502 243.827 169.494 243.332 170.343C242.837 171.191 242.095 171.851 241.104 172.321C240.114 172.782 238.896 173.012 237.451 173.012C236.57 173.012 235.673 173.012 234.763 173.012C233.852 173.012 232.931 173.007 232 172.996C232.079 170.982 232.119 169.105 232.119 167.366C232.119 165.607 232.079 163.771 232 161.859C233.178 161.757 234.763 161.706 236.753 161.706ZM237.867 169.959C238.787 169.959 239.401 169.729 239.708 169.269C240.015 168.808 240.169 168.174 240.169 167.366C240.169 166.589 240.005 165.96 239.679 165.479C239.362 164.999 238.758 164.758 237.867 164.758C236.906 164.758 236.188 164.789 235.713 164.85V169.959H237.867Z" fill="black"/>
<path d="M251.866 173.165C249.599 173.165 247.93 172.659 246.861 171.646C245.792 170.624 245.257 169.192 245.257 167.351C245.257 165.531 245.787 164.109 246.846 163.086C247.915 162.063 249.589 161.552 251.866 161.552C254.153 161.552 255.827 162.063 256.886 163.086C257.956 164.109 258.49 165.531 258.49 167.351C258.49 169.202 257.96 170.634 256.901 171.646C255.842 172.659 254.163 173.165 251.866 173.165ZM251.866 170.036C252.965 170.036 253.757 169.821 254.242 169.391C254.728 168.952 254.97 168.271 254.97 167.351C254.97 166.451 254.728 165.781 254.242 165.341C253.757 164.902 252.965 164.682 251.866 164.682C250.777 164.682 249.99 164.902 249.505 165.341C249.019 165.781 248.777 166.451 248.777 167.351C248.777 168.261 249.019 168.936 249.505 169.376C249.99 169.816 250.777 170.036 251.866 170.036Z" fill="black"/>
<path d="M272.135 161.89C272.066 163.618 272.031 165.469 272.031 167.443C272.031 169.427 272.066 171.283 272.135 173.012H266.818L263.224 164.636L263.491 173.012H259.674C259.753 171.028 259.793 169.171 259.793 167.443C259.793 165.725 259.753 163.874 259.674 161.89H265.14L268.749 170.496L268.496 161.89H272.135Z" fill="black"/>
<path d="M282.694 173.012C282.506 172.429 282.254 171.698 281.937 170.818H277.199L276.456 173.012H272.728L276.887 161.874H282.353L286.541 173.012H282.694ZM281.09 168.425C280.714 167.351 280.328 166.277 279.932 165.203L279.575 164.206C279.229 165.137 278.719 166.543 278.045 168.425H281.09Z" fill="black"/>
<path d="M299.207 165.096C297.652 165.045 296.142 165.014 294.677 165.004V173.012H290.964V165.004C289.488 165.014 287.983 165.045 286.449 165.096V161.874H299.207V165.096Z" fill="black"/>
<path d="M303.907 170.204C307.669 170.184 310.397 170.128 312.09 170.036C312.021 170.455 311.977 170.89 311.957 171.34C311.947 171.779 311.942 172.337 311.942 173.012H300.402C300.481 171.028 300.521 169.171 300.521 167.443C300.521 165.715 300.481 163.858 300.402 161.874H311.942V164.651H303.907V166.124C304.382 166.134 305.085 166.139 306.016 166.139C307.59 166.139 309.219 166.108 310.902 166.047V168.686C309.219 168.624 307.59 168.594 306.016 168.594C305.085 168.594 304.382 168.599 303.907 168.609V170.204Z" fill="black"/>
</mask>
<g mask="url(#mask0_117_238)">
<rect x="218.385" y="165.957" width="106.921" height="12.8145" fill="#FFC700"/>
</g>
<mask id="mask1_117_238" style="mask-type:alpha" maskUnits="userSpaceOnUse" x="232" y="141" width="81" height="12">
<path d="M236.753 141.282C238.614 141.282 240.085 141.518 241.164 141.988C242.243 142.448 242.996 143.093 243.421 143.921C243.857 144.739 244.075 145.747 244.075 146.943C244.075 148.078 243.827 149.071 243.332 149.919C242.837 150.768 242.095 151.428 241.104 151.898C240.114 152.359 238.896 152.589 237.451 152.589C236.57 152.589 235.673 152.589 234.763 152.589C233.852 152.589 232.931 152.584 232 152.573C232.079 150.559 232.119 148.682 232.119 146.943C232.119 145.184 232.079 143.348 232 141.436C233.178 141.334 234.763 141.282 236.753 141.282ZM237.867 149.536C238.787 149.536 239.401 149.306 239.708 148.846C240.015 148.385 240.169 147.751 240.169 146.943C240.169 146.166 240.005 145.537 239.679 145.056C239.362 144.576 238.758 144.335 237.867 144.335C236.906 144.335 236.188 144.366 235.713 144.427V149.536H237.867Z" fill="black"/>
<path d="M251.866 152.742C249.599 152.742 247.93 152.236 246.861 151.223C245.792 150.201 245.257 148.769 245.257 146.928C245.257 145.107 245.787 143.686 246.846 142.663C247.915 141.64 249.589 141.129 251.866 141.129C254.153 141.129 255.827 141.64 256.886 142.663C257.956 143.686 258.49 145.107 258.49 146.928C258.49 148.779 257.96 150.211 256.901 151.223C255.842 152.236 254.163 152.742 251.866 152.742ZM251.866 149.613C252.965 149.613 253.757 149.398 254.242 148.968C254.728 148.528 254.97 147.848 254.97 146.928C254.97 146.028 254.728 145.358 254.242 144.918C253.757 144.478 252.965 144.259 251.866 144.259C250.777 144.259 249.99 144.478 249.505 144.918C249.019 145.358 248.777 146.028 248.777 146.928C248.777 147.838 249.019 148.513 249.505 148.953C249.99 149.393 250.777 149.613 251.866 149.613Z" fill="black"/>
<path d="M272.135 141.467C272.066 143.195 272.031 145.046 272.031 147.02C272.031 149.004 272.066 150.86 272.135 152.589H266.818L263.224 144.213L263.491 152.589H259.674C259.753 150.605 259.793 148.748 259.793 147.02C259.793 145.302 259.753 143.451 259.674 141.467H265.14L268.749 150.073L268.496 141.467H272.135Z" fill="black"/>
<path d="M282.694 152.589C282.506 152.006 282.254 151.275 281.937 150.395H277.199L276.456 152.589H272.728L276.887 141.451H282.353L286.541 152.589H282.694ZM281.09 148.002C280.714 146.928 280.328 145.854 279.932 144.78L279.575 143.783C279.229 144.714 278.719 146.12 278.045 148.002H281.09Z" fill="black"/>
<path d="M299.207 144.673C297.652 144.622 296.142 144.591 294.677 144.581V152.589H290.964V144.581C289.488 144.591 287.983 144.622 286.449 144.673V141.451H299.207V144.673Z" fill="black"/>
<path d="M303.907 149.781C307.669 149.761 310.397 149.705 312.09 149.613C312.021 150.032 311.977 150.467 311.957 150.917C311.947 151.356 311.942 151.914 311.942 152.589H300.402C300.481 150.605 300.521 148.748 300.521 147.02C300.521 145.292 300.481 143.435 300.402 141.451H311.942V144.228H303.907V145.701C304.382 145.711 305.085 145.716 306.016 145.716C307.59 145.716 309.219 145.685 310.902 145.624V148.263C309.219 148.201 307.59 148.171 306.016 148.171C305.085 148.171 304.382 148.176 303.907 148.186V149.781Z" fill="black"/>
</mask>
<g mask="url(#mask1_117_238)">
<rect x="218.385" y="137.125" width="106.921" height="12.8145" fill="#FFC700"/>
</g>
<mask id="mask2_117_238" style="mask-type:alpha" maskUnits="userSpaceOnUse" x="232" y="165" width="81" height="12">
<path d="M236.753 165.31C238.614 165.31 240.085 165.545 241.164 166.015C242.243 166.475 242.996 167.12 243.421 167.948C243.857 168.766 244.075 169.774 244.075 170.97C244.075 172.106 243.827 173.098 243.332 173.947C242.837 174.795 242.095 175.455 241.104 175.925C240.114 176.386 238.896 176.616 237.451 176.616C236.57 176.616 235.673 176.616 234.763 176.616C233.852 176.616 232.931 176.611 232 176.601C232.079 174.586 232.119 172.709 232.119 170.97C232.119 169.211 232.079 167.375 232 165.463C233.178 165.361 234.763 165.31 236.753 165.31ZM237.867 173.563C238.787 173.563 239.401 173.333 239.708 172.873C240.015 172.412 240.169 171.778 240.169 170.97C240.169 170.193 240.005 169.564 239.679 169.083C239.362 168.603 238.758 168.362 237.867 168.362C236.906 168.362 236.188 168.393 235.713 168.454V173.563H237.867Z" fill="black"/>
<path d="M251.866 176.769C249.599 176.769 247.93 176.263 246.861 175.25C245.792 174.228 245.257 172.796 245.257 170.955C245.257 169.135 245.787 167.713 246.846 166.69C247.915 165.667 249.589 165.156 251.866 165.156C254.153 165.156 255.827 165.667 256.886 166.69C257.956 167.713 258.49 169.135 258.49 170.955C258.49 172.806 257.96 174.238 256.901 175.25C255.842 176.263 254.163 176.769 251.866 176.769ZM251.866 173.64C252.965 173.64 253.757 173.425 254.242 172.995C254.728 172.556 254.97 171.875 254.97 170.955C254.97 170.055 254.728 169.385 254.242 168.945C253.757 168.506 252.965 168.286 251.866 168.286C250.777 168.286 249.99 168.506 249.505 168.945C249.019 169.385 248.777 170.055 248.777 170.955C248.777 171.865 249.019 172.54 249.505 172.98C249.99 173.42 250.777 173.64 251.866 173.64Z" fill="black"/>
<path d="M272.135 165.494C272.066 167.222 272.031 169.073 272.031 171.047C272.031 173.031 272.066 174.887 272.135 176.616H266.818L263.224 168.24L263.491 176.616H259.674C259.753 174.632 259.793 172.775 259.793 171.047C259.793 169.329 259.753 167.478 259.674 165.494H265.14L268.749 174.1L268.496 165.494H272.135Z" fill="black"/>
<path d="M282.694 176.616C282.506 176.033 282.254 175.302 281.937 174.422H277.199L276.456 176.616H272.728L276.887 165.478H282.353L286.541 176.616H282.694ZM281.09 172.029C280.714 170.955 280.328 169.881 279.932 168.807L279.575 167.81C279.229 168.741 278.719 170.147 278.045 172.029H281.09Z" fill="black"/>
<path d="M299.207 168.7C297.652 168.649 296.142 168.618 294.677 168.608V176.616H290.964V168.608C289.488 168.618 287.983 168.649 286.449 168.7V165.478H299.207V168.7Z" fill="black"/>
<path d="M303.907 173.808C307.669 173.788 310.397 173.732 312.09 173.64C312.021 174.059 311.977 174.494 311.957 174.944C311.947 175.383 311.942 175.941 311.942 176.616H300.402C300.481 174.632 300.521 172.775 300.521 171.047C300.521 169.319 300.481 167.462 300.402 165.478H311.942V168.255H303.907V169.728C304.382 169.738 305.085 169.743 306.016 169.743C307.59 169.743 309.219 169.712 310.902 169.651V172.29C309.219 172.228 307.59 172.198 306.016 172.198C305.085 172.198 304.382 172.203 303.907 172.213V173.808Z" fill="black"/>
</mask>
<g mask="url(#mask2_117_238)">
<rect x="219.986" y="173.966" width="106.921" height="14.0158" fill="#FFC700"/>
</g>
<mask id="mask3_117_238" style="mask-type:alpha" maskUnits="userSpaceOnUse" x="232" y="135" width="81" height="13">
<path d="M236.753 136.077C238.614 136.077 240.085 136.312 241.164 136.782C242.243 137.242 242.996 137.887 243.421 138.715C243.857 139.533 244.075 140.541 244.075 141.737C244.075 142.873 243.827 143.865 243.332 144.713C242.837 145.562 242.095 146.222 241.104 146.692C240.114 147.153 238.896 147.383 237.451 147.383C236.57 147.383 235.673 147.383 234.763 147.383C233.852 147.383 232.931 147.378 232 147.367C232.079 145.353 232.119 143.476 232.119 141.737C232.119 139.978 232.079 138.142 232 136.23C233.178 136.128 234.763 136.077 236.753 136.077ZM237.867 144.33C238.787 144.33 239.401 144.1 239.708 143.64C240.015 143.179 240.169 142.545 240.169 141.737C240.169 140.96 240.005 140.331 239.679 139.85C239.362 139.37 238.758 139.129 237.867 139.129C236.906 139.129 236.188 139.16 235.713 139.221V144.33H237.867Z" fill="black"/>
<path d="M251.866 147.536C249.599 147.536 247.93 147.03 246.861 146.017C245.792 144.995 245.257 143.563 245.257 141.722C245.257 139.902 245.787 138.48 246.846 137.457C247.915 136.434 249.589 135.923 251.866 135.923C254.153 135.923 255.827 136.434 256.886 137.457C257.956 138.48 258.49 139.902 258.49 141.722C258.49 143.573 257.96 145.005 256.901 146.017C255.842 147.03 254.163 147.536 251.866 147.536ZM251.866 144.407C252.965 144.407 253.757 144.192 254.242 143.762C254.728 143.323 254.97 142.642 254.97 141.722C254.97 140.822 254.728 140.152 254.242 139.712C253.757 139.273 252.965 139.053 251.866 139.053C250.777 139.053 249.99 139.273 249.505 139.712C249.019 140.152 248.777 140.822 248.777 141.722C248.777 142.632 249.019 143.307 249.505 143.747C249.99 144.187 250.777 144.407 251.866 144.407Z" fill="black"/>
<path d="M272.135 136.261C272.066 137.989 272.031 139.84 272.031 141.814C272.031 143.798 272.066 145.654 272.135 147.383H266.818L263.224 139.007L263.491 147.383H259.674C259.753 145.399 259.793 143.542 259.793 141.814C259.793 140.096 259.753 138.245 259.674 136.261H265.14L268.749 144.867L268.496 136.261H272.135Z" fill="black"/>
<path d="M282.694 147.383C282.506 146.8 282.254 146.069 281.937 145.189H277.199L276.456 147.383H272.728L276.887 136.245H282.353L286.541 147.383H282.694ZM281.09 142.796C280.714 141.722 280.328 140.648 279.932 139.574L279.575 138.577C279.229 139.508 278.719 140.914 278.045 142.796H281.09Z" fill="black"/>
<path d="M299.207 139.467C297.652 139.416 296.142 139.385 294.677 139.375V147.383H290.964V139.375C289.488 139.385 287.983 139.416 286.449 139.467V136.245H299.207V139.467Z" fill="black"/>
<path d="M303.907 144.575C307.669 144.555 310.397 144.499 312.09 144.407C312.021 144.826 311.977 145.261 311.957 145.711C311.947 146.15 311.942 146.708 311.942 147.383H300.402C300.481 145.399 300.521 143.542 300.521 141.814C300.521 140.086 300.481 138.229 300.402 136.245H311.942V139.022H303.907V140.495C304.382 140.505 305.085 140.51 306.016 140.51C307.59 140.51 309.219 140.479 310.902 140.418V143.057C309.219 142.995 307.59 142.965 306.016 142.965C305.085 142.965 304.382 142.97 303.907 142.98V144.575Z" fill="black"/>
</mask>
<g mask="url(#mask3_117_238)">
<rect x="218.385" y="126.713" width="106.921" height="14.0158" fill="#FFC700"/>
</g>
<defs>
<filter id="filter0_ddi_117_238" x="-26.0359" y="0.638855" width="183.633" height="179.204" filterUnits="userSpaceOnUse" color-interpolation-filters="sRGB">
<feFlood flood-opacity="0" result="BackgroundImageFix"/>
<feColorMatrix in="SourceAlpha" type="matrix" values="0 0 0 0 0 0 0 0 0 0 0 0 0 0 0 0 0 0 127 0" result="hardAlpha"/>
<feOffset dy="27.0833"/>
<feGaussianBlur stdDeviation="10.4167"/>
<feColorMatrix type="matrix" values="0 0 0 0 0.243137 0 0 0 0 0.294118 0 0 0 0 0.164706 0 0 0 0.54 0"/>
<feBlend mode="multiply" in2="BackgroundImageFix" result="effect1_dropShadow_117_238"/>
<feColorMatrix in="SourceAlpha" type="matrix" values="0 0 0 0 0 0 0 0 0 0 0 0 0 0 0 0 0 0 127 0" result="hardAlpha"/>
<feOffset dy="41.6667"/>
<feGaussianBlur stdDeviation="27.0833"/>
<feColorMatrix type="matrix" values="0 0 0 0 0.717647 0 0 0 0 0.796078 0 0 0 0 0.564706 0 0 0 0.33 0"/>
<feBlend mode="color-dodge" in2="effect1_dropShadow_117_238" result="effect2_dropShadow_117_238"/>
<feBlend mode="normal" in="SourceGraphic" in2="effect2_dropShadow_117_238" result="shape"/>
<feColorMatrix in="SourceAlpha" type="matrix" values="0 0 0 0 0 0 0 0 0 0 0 0 0 0 0 0 0 0 127 0" result="hardAlpha"/>
<feOffset dx="-2.70833" dy="5.41667"/>
<feGaussianBlur stdDeviation="1.35417"/>
<feComposite in2="hardAlpha" operator="arithmetic" k2="-1" k3="1"/>
<feColorMatrix type="matrix" values="0 0 0 0 1 0 0 0 0 1 0 0 0 0 1 0 0 0 0.5 0"/>
<feBlend mode="normal" in2="shape" result="effect3_innerShadow_117_238"/>
</filter>
<clipPath id="clip0_117_238">
<rect width="237" height="110" fill="white" transform="translate(42 81)"/>
</clipPath>
</defs>
</svg>
