<svg width="305" height="258" viewBox="0 0 305 258" fill="none" xmlns="http://www.w3.org/2000/svg">
<g style="mix-blend-mode:hard-light" filter="url(#filter0_ddi_22_599)">
<path d="M74.2216 63.8501C63.6074 65.6631 56.4646 75.7075 58.2715 86.2857C59.7301 94.8249 66.5557 114.517 103.166 129.348C103.822 129.61 104.535 129.686 105.23 129.567C105.924 129.449 106.572 129.14 107.103 128.676C136.715 102.533 136.617 81.6916 135.158 73.1524C133.351 62.5741 123.279 55.4704 112.665 57.2834C102.051 59.0965 95.4259 72.1742 95.4259 72.1742C95.4259 72.1742 84.8358 62.037 74.2216 63.8501Z" stroke="#B5CA8D" stroke-width="7" stroke-linecap="round" stroke-linejoin="round"/>
</g>
<path d="M52 94.2338C60.6503 103.674 74.5794 109.808 86.9157 103.604C91.8626 101.116 97.3739 95.8663 97.5536 89.9013C97.6677 86.1142 93.3646 83.5476 90.4155 86.4662C87.1109 89.7367 89.1162 96.429 90.5712 99.9336C99.4933 121.423 122.798 133.493 142.7 142.591C173.375 156.614 206.496 166.471 239.969 170.784C254.201 172.618 265.19 173.334 279.222 171.94C283.354 171.53 287.473 170.815 291.478 169.724C306.083 165.743 292.81 168.001 304.334 163.146" stroke="#F4F4F3" stroke-linecap="round"/>
<rect x="52" y="143" width="115.615" height="54" fill="#131BDE"/>
<path d="M74.7656 166.685C76.6322 166.685 78.1065 166.909 79.1887 167.358C80.2709 167.797 81.0255 168.412 81.4524 169.202C81.8892 169.982 82.1077 170.943 82.1077 172.084C82.1077 173.167 81.8594 174.113 81.363 174.923C80.8666 175.733 80.122 176.362 79.1291 176.811C78.1363 177.25 76.9151 177.469 75.4656 177.469C74.5819 177.469 73.6834 177.469 72.77 177.469C71.8566 177.469 70.9333 177.464 70 177.455C70.0794 175.533 70.1191 173.743 70.1191 172.084C70.1191 170.406 70.0794 168.655 70 166.831C71.1815 166.734 72.77 166.685 74.7656 166.685ZM75.8826 174.557C76.8059 174.557 77.4215 174.338 77.7292 173.899C78.037 173.46 78.1909 172.855 78.1909 172.084C78.1909 171.343 78.0271 170.743 77.6995 170.285C77.3817 169.826 76.7761 169.597 75.8826 169.597C74.9195 169.597 74.1997 169.626 73.7231 169.685V174.557H75.8826Z" fill="#FFC700"/>
<path d="M89.92 177.615C87.6464 177.615 85.9734 177.133 84.9012 176.167C83.8289 175.191 83.2928 173.826 83.2928 172.07C83.2928 170.333 83.8239 168.977 84.8863 168.002C85.9585 167.026 87.6364 166.539 89.92 166.539C92.2134 166.539 93.8913 167.026 94.9537 168.002C96.0259 168.977 96.5621 170.333 96.5621 172.07C96.5621 173.835 96.0309 175.201 94.9685 176.167C93.9062 177.133 92.2234 177.615 89.92 177.615ZM89.92 174.63C91.022 174.63 91.8163 174.426 92.3028 174.016C92.7893 173.596 93.0325 172.948 93.0325 172.07C93.0325 171.211 92.7893 170.572 92.3028 170.153C91.8163 169.733 91.022 169.524 89.92 169.524C88.8278 169.524 88.0385 169.733 87.5521 170.153C87.0656 170.572 86.8223 171.211 86.8223 172.07C86.8223 172.938 87.0656 173.582 87.5521 174.001C88.0385 174.421 88.8278 174.63 89.92 174.63Z" fill="#FFC700"/>
<path d="M110.244 166.86C110.174 168.509 110.14 170.275 110.14 172.158C110.14 174.05 110.174 175.821 110.244 177.469H104.912L101.308 169.48L101.576 177.469H97.749C97.8285 175.577 97.8682 173.806 97.8682 172.158C97.8682 170.519 97.8285 168.753 97.749 166.86H103.229L106.848 175.069L106.595 166.86H110.244Z" fill="#FFC700"/>
<path d="M120.832 177.469C120.643 176.913 120.39 176.216 120.072 175.377H115.321L114.577 177.469H110.839L115.009 166.846H120.489L124.689 177.469H120.832ZM119.223 173.094C118.846 172.07 118.459 171.045 118.062 170.021L117.704 169.07C117.357 169.958 116.845 171.299 116.17 173.094H119.223Z" fill="#FFC700"/>
<path d="M137.389 169.919C135.83 169.87 134.316 169.841 132.847 169.831V177.469H129.124V169.831C127.644 169.841 126.135 169.87 124.596 169.919V166.846H137.389V169.919Z" fill="#FFC700"/>
<path d="M142.102 174.791C145.875 174.772 148.61 174.718 150.308 174.63C150.238 175.03 150.194 175.445 150.174 175.874C150.164 176.294 150.159 176.825 150.159 177.469H138.587C138.667 175.577 138.706 173.806 138.706 172.158C138.706 170.509 138.667 168.738 138.587 166.846H150.159V169.494H142.102V170.899C142.578 170.909 143.283 170.914 144.217 170.914C145.795 170.914 147.428 170.884 149.116 170.826V173.343C147.428 173.284 145.795 173.255 144.217 173.255C143.283 173.255 142.578 173.26 142.102 173.27V174.791Z" fill="#FFC700"/>
<mask id="mask0_22_599" style="mask-type:alpha" maskUnits="userSpaceOnUse" x="70" y="175" width="81" height="13">
<path d="M74.7527 175.706C76.6142 175.706 78.0846 175.941 79.1639 176.411C80.2431 176.872 80.9956 177.516 81.4214 178.344C81.8571 179.162 82.0749 180.17 82.0749 181.366C82.0749 182.502 81.8274 183.494 81.3323 184.343C80.8372 185.191 80.0946 185.851 79.1045 186.322C78.1143 186.782 76.8964 187.012 75.4508 187.012C74.5696 187.012 73.6735 187.012 72.7625 187.012C71.8516 187.012 70.9307 187.007 70 186.997C70.0792 184.982 70.1188 183.105 70.1188 181.366C70.1188 179.607 70.0792 177.772 70 175.859C71.1783 175.757 72.7625 175.706 74.7527 175.706ZM75.8667 183.959C76.7875 183.959 77.4014 183.729 77.7083 183.269C78.0153 182.809 78.1688 182.174 78.1688 181.366C78.1688 180.589 78.0054 179.96 77.6786 179.48C77.3618 178.999 76.7578 178.759 75.8667 178.759C74.9062 178.759 74.1883 178.789 73.7131 178.851V183.959H75.8667Z" fill="black"/>
<path d="M89.8661 187.165C87.5986 187.165 85.9302 186.659 84.8609 185.647C83.7915 184.624 83.2568 183.192 83.2568 181.351C83.2568 179.531 83.7866 178.109 84.846 177.086C85.9154 176.064 87.5887 175.552 89.8661 175.552C92.1533 175.552 93.8267 176.064 94.8862 177.086C95.9555 178.109 96.4902 179.531 96.4902 181.351C96.4902 183.202 95.9605 184.634 94.901 185.647C93.8416 186.659 92.1632 187.165 89.8661 187.165ZM89.8661 184.036C90.9652 184.036 91.7573 183.821 92.2425 183.391C92.7276 182.952 92.9702 182.272 92.9702 181.351C92.9702 180.451 92.7276 179.781 92.2425 179.341C91.7573 178.902 90.9652 178.682 89.8661 178.682C88.7769 178.682 87.9898 178.902 87.5046 179.341C87.0194 179.781 86.7768 180.451 86.7768 181.351C86.7768 182.261 87.0194 182.936 87.5046 183.376C87.9898 183.816 88.7769 184.036 89.8661 184.036Z" fill="black"/>
<path d="M110.135 175.89C110.066 177.618 110.031 179.469 110.031 181.443C110.031 183.427 110.066 185.284 110.135 187.012H104.818L101.224 178.636L101.491 187.012H97.674C97.7532 185.028 97.7928 183.172 97.7928 181.443C97.7928 179.725 97.7532 177.874 97.674 175.89H103.14L106.749 184.496L106.496 175.89H110.135Z" fill="black"/>
<path d="M120.694 187.012C120.506 186.429 120.254 185.698 119.937 184.818H115.199L114.456 187.012H110.728L114.887 175.874H120.353L124.541 187.012H120.694ZM119.09 182.425C118.714 181.351 118.328 180.277 117.932 179.203L117.575 178.206C117.229 179.137 116.719 180.543 116.045 182.425H119.09Z" fill="black"/>
<path d="M137.207 179.096C135.652 179.045 134.142 179.014 132.677 179.004V187.012H128.964V179.004C127.488 179.014 125.983 179.045 124.449 179.096V175.874H137.207V179.096Z" fill="black"/>
<path d="M141.907 184.205C145.669 184.184 148.397 184.128 150.09 184.036C150.021 184.455 149.977 184.89 149.957 185.34C149.947 185.78 149.942 186.337 149.942 187.012H138.402C138.481 185.028 138.521 183.172 138.521 181.443C138.521 179.715 138.481 177.859 138.402 175.874H149.942V178.651H141.907V180.124C142.382 180.134 143.085 180.139 144.016 180.139C145.59 180.139 147.219 180.109 148.902 180.047V182.686C147.219 182.624 145.59 182.594 144.016 182.594C143.085 182.594 142.382 182.599 141.907 182.609V184.205Z" fill="black"/>
</mask>
<g mask="url(#mask0_22_599)">
<rect x="56.3845" y="179.957" width="106.921" height="12.8145" fill="#FFC700"/>
</g>
<mask id="mask1_22_599" style="mask-type:alpha" maskUnits="userSpaceOnUse" x="70" y="155" width="81" height="12">
<path d="M74.7527 155.283C76.6142 155.283 78.0846 155.518 79.1639 155.988C80.2431 156.448 80.9956 157.093 81.4214 157.921C81.8571 158.739 82.0749 159.747 82.0749 160.943C82.0749 162.079 81.8274 163.071 81.3323 163.92C80.8372 164.768 80.0946 165.428 79.1045 165.899C78.1143 166.359 76.8964 166.589 75.4508 166.589C74.5696 166.589 73.6735 166.589 72.7625 166.589C71.8516 166.589 70.9307 166.584 70 166.574C70.0792 164.559 70.1188 162.682 70.1188 160.943C70.1188 159.184 70.0792 157.348 70 155.436C71.1783 155.334 72.7625 155.283 74.7527 155.283ZM75.8667 163.536C76.7875 163.536 77.4014 163.306 77.7083 162.846C78.0153 162.385 78.1688 161.751 78.1688 160.943C78.1688 160.166 78.0054 159.537 77.6786 159.056C77.3618 158.576 76.7578 158.335 75.8667 158.335C74.9062 158.335 74.1883 158.366 73.7131 158.427V163.536H75.8667Z" fill="black"/>
<path d="M89.8661 166.742C87.5986 166.742 85.9302 166.236 84.8609 165.224C83.7915 164.201 83.2568 162.769 83.2568 160.928C83.2568 159.108 83.7866 157.686 84.846 156.663C85.9154 155.641 87.5887 155.129 89.8661 155.129C92.1533 155.129 93.8267 155.641 94.8862 156.663C95.9555 157.686 96.4902 159.108 96.4902 160.928C96.4902 162.779 95.9605 164.211 94.901 165.224C93.8416 166.236 92.1632 166.742 89.8661 166.742ZM89.8661 163.613C90.9652 163.613 91.7573 163.398 92.2425 162.968C92.7276 162.529 92.9702 161.849 92.9702 160.928C92.9702 160.028 92.7276 159.358 92.2425 158.918C91.7573 158.479 90.9652 158.259 89.8661 158.259C88.7769 158.259 87.9898 158.479 87.5046 158.918C87.0194 159.358 86.7768 160.028 86.7768 160.928C86.7768 161.838 87.0194 162.513 87.5046 162.953C87.9898 163.393 88.7769 163.613 89.8661 163.613Z" fill="black"/>
<path d="M110.135 155.467C110.066 157.195 110.031 159.046 110.031 161.02C110.031 163.004 110.066 164.86 110.135 166.589H104.818L101.224 158.213L101.491 166.589H97.674C97.7532 164.605 97.7928 162.749 97.7928 161.02C97.7928 159.302 97.7532 157.451 97.674 155.467H103.14L106.749 164.073L106.496 155.467H110.135Z" fill="black"/>
<path d="M120.694 166.589C120.506 166.006 120.254 165.275 119.937 164.395H115.199L114.456 166.589H110.728L114.887 155.451H120.353L124.541 166.589H120.694ZM119.09 162.002C118.714 160.928 118.328 159.854 117.932 158.78L117.575 157.783C117.229 158.714 116.719 160.12 116.045 162.002H119.09Z" fill="black"/>
<path d="M137.207 158.673C135.652 158.622 134.142 158.591 132.677 158.581V166.589H128.964V158.581C127.488 158.591 125.983 158.622 124.449 158.673V155.451H137.207V158.673Z" fill="black"/>
<path d="M141.907 163.781C145.669 163.761 148.397 163.705 150.09 163.613C150.021 164.032 149.977 164.467 149.957 164.917C149.947 165.356 149.942 165.914 149.942 166.589H138.402C138.481 164.605 138.521 162.749 138.521 161.02C138.521 159.292 138.481 157.435 138.402 155.451H149.942V158.228H141.907V159.701C142.382 159.711 143.085 159.716 144.016 159.716C145.59 159.716 147.219 159.685 148.902 159.624V162.263C147.219 162.201 145.59 162.171 144.016 162.171C143.085 162.171 142.382 162.176 141.907 162.186V163.781Z" fill="black"/>
</mask>
<g mask="url(#mask1_22_599)">
<rect x="56.3845" y="151.125" width="106.921" height="12.8145" fill="#FFC700"/>
</g>
<mask id="mask2_22_599" style="mask-type:alpha" maskUnits="userSpaceOnUse" x="70" y="179" width="81" height="12">
<path d="M74.7527 179.31C76.6142 179.31 78.0846 179.545 79.1639 180.015C80.2431 180.476 80.9956 181.12 81.4214 181.948C81.8571 182.766 82.0749 183.774 82.0749 184.97C82.0749 186.106 81.8274 187.098 81.3323 187.947C80.8372 188.795 80.0946 189.455 79.1045 189.926C78.1143 190.386 76.8964 190.616 75.4508 190.616C74.5696 190.616 73.6735 190.616 72.7625 190.616C71.8516 190.616 70.9307 190.611 70 190.601C70.0792 188.586 70.1188 186.709 70.1188 184.97C70.1188 183.211 70.0792 181.376 70 179.463C71.1783 179.361 72.7625 179.31 74.7527 179.31ZM75.8667 187.563C76.7875 187.563 77.4014 187.333 77.7083 186.873C78.0153 186.413 78.1688 185.778 78.1688 184.97C78.1688 184.193 78.0054 183.564 77.6786 183.084C77.3618 182.603 76.7578 182.363 75.8667 182.363C74.9062 182.363 74.1883 182.393 73.7131 182.455V187.563H75.8667Z" fill="black"/>
<path d="M89.8661 190.769C87.5986 190.769 85.9302 190.263 84.8609 189.251C83.7915 188.228 83.2568 186.796 83.2568 184.955C83.2568 183.135 83.7866 181.713 84.846 180.69C85.9154 179.668 87.5887 179.156 89.8661 179.156C92.1533 179.156 93.8267 179.668 94.8862 180.69C95.9555 181.713 96.4902 183.135 96.4902 184.955C96.4902 186.806 95.9605 188.238 94.901 189.251C93.8416 190.263 92.1632 190.769 89.8661 190.769ZM89.8661 187.64C90.9652 187.64 91.7573 187.425 92.2425 186.995C92.7276 186.556 92.9702 185.876 92.9702 184.955C92.9702 184.055 92.7276 183.385 92.2425 182.945C91.7573 182.506 90.9652 182.286 89.8661 182.286C88.7769 182.286 87.9898 182.506 87.5046 182.945C87.0194 183.385 86.7768 184.055 86.7768 184.955C86.7768 185.865 87.0194 186.54 87.5046 186.98C87.9898 187.42 88.7769 187.64 89.8661 187.64Z" fill="black"/>
<path d="M110.135 179.494C110.066 181.222 110.031 183.073 110.031 185.047C110.031 187.031 110.066 188.888 110.135 190.616H104.818L101.224 182.24L101.491 190.616H97.674C97.7532 188.632 97.7928 186.776 97.7928 185.047C97.7928 183.329 97.7532 181.478 97.674 179.494H103.14L106.749 188.1L106.496 179.494H110.135Z" fill="black"/>
<path d="M120.694 190.616C120.506 190.033 120.254 189.302 119.937 188.422H115.199L114.456 190.616H110.728L114.887 179.478H120.353L124.541 190.616H120.694ZM119.09 186.029C118.714 184.955 118.328 183.881 117.932 182.807L117.575 181.81C117.229 182.741 116.719 184.147 116.045 186.029H119.09Z" fill="black"/>
<path d="M137.207 182.7C135.652 182.649 134.142 182.618 132.677 182.608V190.616H128.964V182.608C127.488 182.618 125.983 182.649 124.449 182.7V179.478H137.207V182.7Z" fill="black"/>
<path d="M141.907 187.809C145.669 187.788 148.397 187.732 150.09 187.64C150.021 188.059 149.977 188.494 149.957 188.944C149.947 189.384 149.942 189.941 149.942 190.616H138.402C138.481 188.632 138.521 186.776 138.521 185.047C138.521 183.319 138.481 181.463 138.402 179.478H149.942V182.255H141.907V183.728C142.382 183.738 143.085 183.743 144.016 183.743C145.59 183.743 147.219 183.713 148.902 183.651V186.29C147.219 186.228 145.59 186.198 144.016 186.198C143.085 186.198 142.382 186.203 141.907 186.213V187.809Z" fill="black"/>
</mask>
<g mask="url(#mask2_22_599)">
<rect x="57.9863" y="187.966" width="106.921" height="14.0158" fill="#FFC700"/>
</g>
<mask id="mask3_22_599" style="mask-type:alpha" maskUnits="userSpaceOnUse" x="70" y="149" width="81" height="13">
<path d="M74.7527 150.077C76.6142 150.077 78.0846 150.312 79.1639 150.782C80.2431 151.243 80.9956 151.887 81.4214 152.715C81.8571 153.533 82.0749 154.541 82.0749 155.737C82.0749 156.873 81.8274 157.865 81.3323 158.714C80.8372 159.562 80.0946 160.222 79.1045 160.693C78.1143 161.153 76.8964 161.383 75.4508 161.383C74.5696 161.383 73.6735 161.383 72.7625 161.383C71.8516 161.383 70.9307 161.378 70 161.368C70.0792 159.353 70.1188 157.476 70.1188 155.737C70.1188 153.978 70.0792 152.143 70 150.23C71.1783 150.128 72.7625 150.077 74.7527 150.077ZM75.8667 158.33C76.7875 158.33 77.4014 158.1 77.7083 157.64C78.0153 157.18 78.1688 156.545 78.1688 155.737C78.1688 154.96 78.0054 154.331 77.6786 153.851C77.3618 153.37 76.7578 153.129 75.8667 153.129C74.9062 153.129 74.1883 153.16 73.7131 153.222V158.33H75.8667Z" fill="black"/>
<path d="M89.8661 161.536C87.5986 161.536 85.9302 161.03 84.8609 160.018C83.7915 158.995 83.2568 157.563 83.2568 155.722C83.2568 153.902 83.7866 152.48 84.846 151.457C85.9154 150.435 87.5887 149.923 89.8661 149.923C92.1533 149.923 93.8267 150.435 94.8862 151.457C95.9555 152.48 96.4902 153.902 96.4902 155.722C96.4902 157.573 95.9605 159.005 94.901 160.018C93.8416 161.03 92.1632 161.536 89.8661 161.536ZM89.8661 158.407C90.9652 158.407 91.7573 158.192 92.2425 157.762C92.7276 157.323 92.9702 156.643 92.9702 155.722C92.9702 154.822 92.7276 154.152 92.2425 153.712C91.7573 153.273 90.9652 153.053 89.8661 153.053C88.7769 153.053 87.9898 153.273 87.5046 153.712C87.0194 154.152 86.7768 154.822 86.7768 155.722C86.7768 156.632 87.0194 157.307 87.5046 157.747C87.9898 158.187 88.7769 158.407 89.8661 158.407Z" fill="black"/>
<path d="M110.135 150.261C110.066 151.989 110.031 153.84 110.031 155.814C110.031 157.798 110.066 159.655 110.135 161.383H104.818L101.224 153.007L101.491 161.383H97.674C97.7532 159.399 97.7928 157.543 97.7928 155.814C97.7928 154.096 97.7532 152.245 97.674 150.261H103.14L106.749 158.867L106.496 150.261H110.135Z" fill="black"/>
<path d="M120.694 161.383C120.506 160.8 120.254 160.069 119.937 159.189H115.199L114.456 161.383H110.728L114.887 150.245H120.353L124.541 161.383H120.694ZM119.09 156.796C118.714 155.722 118.328 154.648 117.932 153.574L117.575 152.577C117.229 153.508 116.719 154.914 116.045 156.796H119.09Z" fill="black"/>
<path d="M137.207 153.467C135.652 153.416 134.142 153.385 132.677 153.375V161.383H128.964V153.375C127.488 153.385 125.983 153.416 124.449 153.467V150.245H137.207V153.467Z" fill="black"/>
<path d="M141.907 158.576C145.669 158.555 148.397 158.499 150.09 158.407C150.021 158.826 149.977 159.261 149.957 159.711C149.947 160.151 149.942 160.708 149.942 161.383H138.402C138.481 159.399 138.521 157.543 138.521 155.814C138.521 154.086 138.481 152.229 138.402 150.245H149.942V153.022H141.907V154.495C142.382 154.505 143.085 154.51 144.016 154.51C145.59 154.51 147.219 154.479 148.902 154.418V157.057C147.219 156.995 145.59 156.965 144.016 156.965C143.085 156.965 142.382 156.97 141.907 156.98V158.576Z" fill="black"/>
</mask>
<g mask="url(#mask3_22_599)">
<rect x="56.3845" y="140.713" width="106.921" height="14.0158" fill="#FFC700"/>
</g>
<defs>
<filter id="filter0_ddi_22_599" x="0.324543" y="41.0005" width="192.99" height="187.955" filterUnits="userSpaceOnUse" color-interpolation-filters="sRGB">
<feFlood flood-opacity="0" result="BackgroundImageFix"/>
<feColorMatrix in="SourceAlpha" type="matrix" values="0 0 0 0 0 0 0 0 0 0 0 0 0 0 0 0 0 0 127 0" result="hardAlpha"/>
<feOffset dy="27.0833"/>
<feGaussianBlur stdDeviation="10.4167"/>
<feColorMatrix type="matrix" values="0 0 0 0 0.243137 0 0 0 0 0.294118 0 0 0 0 0.164706 0 0 0 0.54 0"/>
<feBlend mode="multiply" in2="BackgroundImageFix" result="effect1_dropShadow_22_599"/>
<feColorMatrix in="SourceAlpha" type="matrix" values="0 0 0 0 0 0 0 0 0 0 0 0 0 0 0 0 0 0 127 0" result="hardAlpha"/>
<feOffset dy="41.6667"/>
<feGaussianBlur stdDeviation="27.0833"/>
<feColorMatrix type="matrix" values="0 0 0 0 0.717647 0 0 0 0 0.796078 0 0 0 0 0.564706 0 0 0 0.33 0"/>
<feBlend mode="color-dodge" in2="effect1_dropShadow_22_599" result="effect2_dropShadow_22_599"/>
<feBlend mode="normal" in="SourceGraphic" in2="effect2_dropShadow_22_599" result="shape"/>
<feColorMatrix in="SourceAlpha" type="matrix" values="0 0 0 0 0 0 0 0 0 0 0 0 0 0 0 0 0 0 127 0" result="hardAlpha"/>
<feOffset dx="-2.70833" dy="5.41667"/>
<feGaussianBlur stdDeviation="1.35417"/>
<feComposite in2="hardAlpha" operator="arithmetic" k2="-1" k3="1"/>
<feColorMatrix type="matrix" values="0 0 0 0 1 0 0 0 0 1 0 0 0 0 1 0 0 0 0.5 0"/>
<feBlend mode="normal" in2="shape" result="effect3_innerShadow_22_599"/>
</filter>
</defs>
</svg>
