<svg width="24" height="24" viewBox="0 0 24 24" fill="none" xmlns="http://www.w3.org/2000/svg">
<mask id="mask0_30_35" style="mask-type:luminance" maskUnits="userSpaceOnUse" x="5" y="13" width="14" height="8">
<path d="M6.85718 19.8571L7.85718 14.7142H17L18 19.8571L13.8312 19.8571L12.4286 15.3376L11.026 19.8571H6.85718Z" fill="white" stroke="white" stroke-width="2" stroke-linecap="round" stroke-linejoin="round"/>
</mask>
<g mask="url(#mask0_30_35)">
<path d="M5.57129 9.57141H19.2856V23.2857H5.57129V9.57141Z" fill="#DCDCDC"/>
</g>
<path d="M7 9H9V10H7V9Z" fill="#D9D9D9"/>
<path d="M14.5921 2.77032L14.5174 2.77557L14.4294 2.78982L14.3446 2.81382L14.2636 2.84682L14.1882 2.88657C14.1395 2.91657 14.0947 2.95107 14.0507 2.99157L13.9965 3.05157L13.9431 3.12132L13.9038 3.19032L13.8692 3.26757L13.8401 3.36807L13.8268 3.45282L13.8197 3.63282C13.7909 4.02109 13.6052 4.38349 13.3017 4.64345C12.9982 4.90342 12.6007 5.04058 12.1932 5.02598C11.7857 5.01137 11.4002 4.84614 11.1179 4.56519C10.8357 4.28423 10.6789 3.90956 10.6808 3.52032C10.6808 3.40148 10.6512 3.28434 10.5945 3.17854C10.5378 3.07275 10.4556 2.98133 10.3546 2.91182C10.2536 2.84231 10.1368 2.7967 10.0137 2.77875C9.89067 2.7608 9.76489 2.77102 9.64677 2.80857L6.7522 3.72957V9.52032L6.7522 11.5L6.75613 11.6125C6.78586 11.9898 6.96392 12.3425 7.25462 12.5999C7.54532 12.8572 7.92717 13.0001 8.32363 13H16.1808L16.2986 12.9962C16.694 12.9679 17.0634 12.7979 17.333 12.5204C17.6026 12.2429 17.7523 11.8784 17.7522 11.5L17.7522 9.52032V3.72957L14.8576 2.80857L14.7688 2.78607L14.6801 2.77332L14.5921 2.77032Z" fill="#D9D9D9"/>
</svg>
