<svg width="32" height="32" viewBox="0 0 32 32" fill="none" xmlns="http://www.w3.org/2000/svg">
<path d="M25.1429 12.5714V9.13597C25.1429 8.53094 24.903 7.9506 24.4758 7.52214C24.0487 7.09368 23.4691 6.85207 22.864 6.85025L19.4286 6.83997M25.1429 19.4285V22.8571C25.1429 23.4633 24.9021 24.0447 24.4734 24.4734C24.0448 24.902 23.4634 25.1428 22.8572 25.1428H19.4286M12.5715 6.83997L9.13603 6.85139C8.53101 6.85321 7.95139 7.09483 7.52422 7.52328C7.09705 7.95174 6.85718 8.53209 6.85718 9.13711V12.5714M12.5715 25.1428H9.14289C8.53668 25.1428 7.9553 24.902 7.52665 24.4734C7.09799 24.0447 6.85718 23.4633 6.85718 22.8571V19.4285" stroke="black" stroke-linecap="round" stroke-linejoin="round"/>
</svg>
