<svg width="32" height="32" viewBox="0 0 32 32" fill="none" xmlns="http://www.w3.org/2000/svg">
<path d="M23 15H11.83L16.71 10.12C17.1 9.73004 17.1 9.09004 16.71 8.70004C16.6175 8.60733 16.5076 8.53379 16.3867 8.4836C16.2657 8.43342 16.136 8.40759 16.005 8.40759C15.8741 8.40759 15.7444 8.43342 15.6234 8.4836C15.5024 8.53379 15.3926 8.60733 15.3 8.70004L8.71005 15.29C8.61734 15.3826 8.5438 15.4924 8.49361 15.6134C8.44343 15.7344 8.4176 15.8641 8.4176 15.995C8.4176 16.126 8.44343 16.2557 8.49361 16.3767C8.5438 16.4976 8.61734 16.6075 8.71005 16.7L15.3 23.29C15.3926 23.3826 15.5025 23.4561 15.6235 23.5062C15.7445 23.5563 15.8741 23.5821 16.005 23.5821C16.136 23.5821 16.2656 23.5563 16.3866 23.5062C16.5076 23.4561 16.6175 23.3826 16.71 23.29C16.8026 23.1975 16.8761 23.0875 16.9262 22.9666C16.9763 22.8456 17.0021 22.716 17.0021 22.585C17.0021 22.4541 16.9763 22.3245 16.9262 22.2035C16.8761 22.0825 16.8026 21.9726 16.71 21.88L11.83 17H23C23.55 17 24 16.55 24 16C24 15.45 23.55 15 23 15Z" fill="black"/>
</svg>
