<svg width="32" height="32" viewBox="0 0 32 32" fill="none" xmlns="http://www.w3.org/2000/svg">
<path d="M5 7.41073C5 5.84216 6.20941 4.53703 7.774 4.42538C11.7479 4.14179 14.4262 4 15.8089 4C17.5012 4 18.8342 4.16342 19.8077 4.49025C20.7903 4.80775 21.6683 5.25132 22.4417 5.82094C23.9429 6.91351 25.0757 8.3656 25.84 10.1772C26.6133 11.9888 27 13.8238 27 15.6821C27 17.5404 26.7043 19.1652 26.1129 20.5566C25.5306 21.9386 24.7208 23.1059 23.6836 24.0584C21.5637 26.0288 18.8205 27.0093 15.4541 26.9999H8C6.34314 26.9999 5 25.6568 5 23.9999V7.41073Z" fill="#FFC700"/>
<circle cx="15" cy="15" r="8" fill="white"/>
<path d="M12.32 13.9965L9.66596 8.46295L14.9347 12.1242L16.331 9.40031L17.0018 12.5609L20.7823 10.8579L17.9528 14.3139L20.7877 15.4685L18.2314 16.4167L20.5655 22.1691L15.5612 18.4098L14.145 20.5394L13.7912 17.9632L10.0434 19.7544L12.5757 16.3082L9.21487 14.5465L12.32 13.9965Z" fill="black"/>
</svg>
