<svg width="22" height="21" viewBox="0 0 22 21" fill="none" xmlns="http://www.w3.org/2000/svg">
<path d="M13.6428 2.63115L13.7299 2.62503L13.8325 2.62853L13.9361 2.6434L14.0397 2.66965L19.5397 4.41965C19.705 4.47227 19.8512 4.56878 19.9611 4.69787C20.071 4.82697 20.1401 4.98329 20.1603 5.14853L20.1667 5.25003V9.62503C20.1667 9.83934 20.0842 10.0462 19.9351 10.2064C19.7859 10.3665 19.5803 10.4688 19.3573 10.4939L19.25 10.5H17.4167V16.625C17.4169 17.0665 17.2422 17.4918 16.9277 17.8155C16.6132 18.1392 16.1821 18.3375 15.7209 18.3707L15.5834 18.375H6.41671C5.95418 18.3752 5.50869 18.2084 5.16954 17.9082C4.83039 17.608 4.62265 17.1965 4.58796 16.7563L4.58337 16.625V10.5H2.75004C2.52552 10.5 2.30882 10.4213 2.14103 10.2789C1.97325 10.1365 1.86606 9.94025 1.83979 9.7274L1.83337 9.62503V5.25003C1.83332 5.08364 1.88296 4.92069 1.97647 4.78028C2.06999 4.63987 2.20351 4.52782 2.36137 4.45728L2.46037 4.41965L7.96037 2.66965C8.09818 2.62584 8.24492 2.61391 8.3885 2.63486C8.53208 2.6558 8.66839 2.70901 8.7862 2.7901C8.90402 2.8712 8.99995 2.97785 9.06611 3.10128C9.13226 3.22471 9.16674 3.36138 9.16671 3.50003C9.16458 3.95414 9.34746 4.39126 9.67672 4.71904C10.006 5.04682 10.4558 5.23959 10.9312 5.25663C11.4066 5.27367 11.8704 5.11364 12.2244 4.81035C12.5785 4.50706 12.7952 4.08426 12.8288 3.63128L12.837 3.42128L12.8526 3.3224L12.8865 3.20515L12.9269 3.11503L12.9727 3.03453L13.035 2.95315L13.0983 2.88315C13.1496 2.8359 13.2019 2.79565 13.2587 2.76065L13.3467 2.71428L13.4411 2.67578L13.5401 2.64778L13.6428 2.63115Z" fill="#DCDCDC"/>
</svg>
