<svg width="22" height="22" viewBox="0 0 22 22" fill="none" xmlns="http://www.w3.org/2000/svg">
<path d="M18.5625 3.4375H3.4375C3.07283 3.4375 2.72309 3.58237 2.46523 3.84023C2.20737 4.09809 2.0625 4.44783 2.0625 4.8125V17.1875C2.0625 17.5522 2.20737 17.9019 2.46523 18.1598C2.72309 18.4176 3.07283 18.5625 3.4375 18.5625H18.5625C18.9272 18.5625 19.2769 18.4176 19.5348 18.1598C19.7926 17.9019 19.9375 17.5522 19.9375 17.1875V4.8125C19.9375 4.44783 19.7926 4.09809 19.5348 3.84023C19.2769 3.58237 18.9272 3.4375 18.5625 3.4375ZM13.4062 7.5625C13.6102 7.5625 13.8096 7.62298 13.9792 7.7363C14.1488 7.84961 14.2809 8.01067 14.359 8.19911C14.4371 8.38754 14.4575 8.59489 14.4177 8.79494C14.3779 8.99498 14.2797 9.17873 14.1355 9.32295C13.9912 9.46718 13.8075 9.56539 13.6074 9.60518C13.4074 9.64498 13.2 9.62455 13.0116 9.5465C12.8232 9.46845 12.6621 9.33627 12.5488 9.16668C12.4355 8.99709 12.375 8.79771 12.375 8.59375C12.375 8.32025 12.4836 8.05794 12.677 7.86455C12.8704 7.67115 13.1327 7.5625 13.4062 7.5625ZM3.4375 17.1875V14.7812L7.90625 10.3125L14.7812 17.1875H3.4375ZM18.5625 17.1875H16.726L13.6323 14.0938L15.351 12.375L18.5625 15.5873V17.1875Z" fill="#DCDCDC"/>
</svg>
