<svg width="32" height="32" viewBox="0 0 32 32" fill="none" xmlns="http://www.w3.org/2000/svg">
<path d="M9.33341 10.3333H11.8334L13.5001 8.66663H18.5001L20.1667 10.3333H22.6667C23.1088 10.3333 23.5327 10.5089 23.8453 10.8214C24.1578 11.134 24.3334 11.5579 24.3334 12V22C24.3334 22.442 24.1578 22.8659 23.8453 23.1785C23.5327 23.491 23.1088 23.6666 22.6667 23.6666H9.33341C8.89139 23.6666 8.46746 23.491 8.1549 23.1785C7.84234 22.8659 7.66675 22.442 7.66675 22V12C7.66675 11.5579 7.84234 11.134 8.1549 10.8214C8.46746 10.5089 8.89139 10.3333 9.33341 10.3333ZM16.0001 12.8333C14.895 12.8333 13.8352 13.2723 13.0538 14.0537C12.2724 14.8351 11.8334 15.8949 11.8334 17C11.8334 18.105 12.2724 19.1648 13.0538 19.9462C13.8352 20.7276 14.895 21.1666 16.0001 21.1666C17.1051 21.1666 18.165 20.7276 18.9464 19.9462C19.7278 19.1648 20.1667 18.105 20.1667 17C20.1667 15.8949 19.7278 14.8351 18.9464 14.0537C18.165 13.2723 17.1051 12.8333 16.0001 12.8333ZM16.0001 14.5C16.6631 14.5 17.299 14.7634 17.7678 15.2322C18.2367 15.701 18.5001 16.3369 18.5001 17C18.5001 17.663 18.2367 18.2989 17.7678 18.7677C17.299 19.2366 16.6631 19.5 16.0001 19.5C15.337 19.5 14.7012 19.2366 14.2323 18.7677C13.7635 18.2989 13.5001 17.663 13.5001 17C13.5001 16.3369 13.7635 15.701 14.2323 15.2322C14.7012 14.7634 15.337 14.5 16.0001 14.5Z" fill="white"/>
</svg>
