<svg width="32" height="32" viewBox="0 0 32 32" fill="none" xmlns="http://www.w3.org/2000/svg">
<path d="M23.5 21.8333V10.1667C23.5 9.25 22.75 8.5 21.8333 8.5H10.1667C9.25 8.5 8.5 9.25 8.5 10.1667V21.8333C8.5 22.75 9.25 23.5 10.1667 23.5H21.8333C22.75 23.5 23.5 22.75 23.5 21.8333ZM13.4167 17.65L15.1667 19.7583L17.75 16.4333C17.9167 16.2167 18.25 16.2167 18.4167 16.4417L21.3417 20.3417C21.3881 20.4036 21.4164 20.4772 21.4233 20.5542C21.4303 20.6313 21.4156 20.7088 21.381 20.778C21.3464 20.8472 21.2932 20.9054 21.2274 20.9461C21.1616 20.9868 21.0857 21.0083 21.0083 21.0083H11.0167C10.6667 21.0083 10.475 20.6083 10.6917 20.3333L12.7667 17.6667C12.925 17.45 13.2417 17.4417 13.4167 17.65Z" fill="white"/>
</svg>
