<svg width="21" height="21" viewBox="0 0 21 21" fill="none" xmlns="http://www.w3.org/2000/svg">
<path d="M10.5 2.625C8.41142 2.625 6.40838 3.45468 4.93153 4.93153C3.45468 6.40838 2.625 8.41142 2.625 10.5V15.75C2.625 16.4462 2.90156 17.1139 3.39384 17.6062C3.88613 18.0984 4.55381 18.375 5.25 18.375H6.45925C6.78431 18.375 7.10294 18.2844 7.37942 18.1135C7.65591 17.9426 7.87932 17.698 8.02462 17.4072L8.17775 17.101C7.89474 16.9034 7.63001 16.6809 7.38675 16.436C6.42513 15.4683 5.6875 14.0472 5.6875 12.25C5.6875 11.6069 5.796 10.9673 5.99288 10.3626C6.08037 10.094 6.32275 10.0625 6.5625 10.0625C8.04125 10.0625 9.34937 9.32837 10.1421 8.20312C10.1825 8.14571 10.2361 8.09886 10.2984 8.06651C10.3607 8.03417 10.4298 8.01728 10.5 8.01728C10.5702 8.01728 10.6393 8.03417 10.7016 8.06651C10.7639 8.09886 10.8175 8.14571 10.8579 8.20312C11.2612 8.7779 11.7971 9.247 12.4203 9.57067C13.0434 9.89434 13.7353 10.063 14.4375 10.0625C14.6772 10.0625 14.9205 10.094 15.0071 10.3626C15.2071 10.9719 15.3101 11.6088 15.3125 12.25C15.3125 14.0481 14.5749 15.4683 13.6132 16.436C13.3639 16.6871 13.097 16.9094 12.8223 17.101L12.9754 17.4072C13.1207 17.698 13.3441 17.9426 13.6206 18.1135C13.8971 18.2844 14.2157 18.375 14.5408 18.375H15.75C16.4462 18.375 17.1139 18.0984 17.6062 17.6062C18.0984 17.1139 18.375 16.4462 18.375 15.75V10.5C18.375 8.41142 17.5453 6.40838 16.0685 4.93153C14.5916 3.45468 12.5886 2.625 10.5 2.625Z" fill="#DCDCDC"/>
</svg>
