<svg width="140" height="40" viewBox="0 0 140 40" fill="none" xmlns="http://www.w3.org/2000/svg">
<path d="M17.28 10H13V29H17.28C22.3198 28.7168 26.1945 24.7005 26.1945 19.6287C26.1945 14.5054 22.2438 10.3089 17.28 10.0257V10ZM17.28 14.3767C19.8885 14.6599 21.9145 16.9255 21.9145 19.6287C21.9145 22.2547 19.9138 24.3401 17.28 24.6233V14.3767Z" fill="white"/>
<path d="M35.8178 10.0772C30.6767 10.0772 26.5234 14.2995 26.5234 19.5257C26.5234 24.752 30.6767 28.9743 35.8178 28.9743C40.9589 28.9743 45.1376 24.752 45.1376 19.5257C45.1376 14.2995 40.9589 10.0772 35.8178 10.0772ZM35.8178 24.6233C33.0573 24.6233 30.8034 22.332 30.8034 19.5257C30.8034 16.7195 33.0573 14.4282 35.8178 14.4282C38.5783 14.4282 40.8322 16.7195 40.8322 19.5257C40.8322 22.332 38.5783 24.6233 35.8178 24.6233Z" fill="white"/>
<path d="M57.1254 21.1477L51.0726 10.1545H46.4127V29H50.6927V17.981L56.7708 29H61.4054V10.103H57.1254V21.1477Z" fill="white"/>
<path d="M71.9758 10.0772C66.8347 10.0772 62.6813 14.2995 62.6813 19.5257C62.6813 24.752 66.8347 28.9743 71.9758 28.9743C77.1168 28.9743 81.2955 24.752 81.2955 19.5257C81.2955 14.2995 77.1168 10.0772 71.9758 10.0772ZM71.9758 24.6233C69.2153 24.6233 66.9613 22.332 66.9613 19.5257C66.9613 16.7195 69.2153 14.4282 71.9758 14.4282C74.7362 14.4282 76.9902 16.7195 76.9902 19.5257C76.9902 22.332 74.7362 24.6233 71.9758 24.6233Z" fill="white"/>
<path d="M90.295 28.9743C92.7262 28.9743 95.0561 28.0732 96.8796 26.2195L93.8658 23.1301C91.8905 25.1382 88.6995 25.1125 86.7494 23.1301C85.8124 22.126 85.2805 20.8902 85.2805 19.5257C85.2805 18.1612 85.8124 16.8997 86.7494 15.8957C88.6995 13.9133 91.8905 13.8875 93.8658 15.8957L96.8796 12.832C93.2327 9.12466 87.3572 9.12466 83.7103 12.832C81.9629 14.6084 81.0005 16.9512 81.0005 19.5257C81.0005 22.0745 81.9629 24.3916 83.7103 26.2195C85.5338 28.0732 87.889 28.9743 90.295 28.9743Z" fill="white"/>
<path d="M108.972 24.6491H102.184V10.0772H97.9045V29H108.972V24.6491Z" fill="white"/>
<path d="M117.68 10.0772C112.539 10.0772 108.386 14.2995 108.386 19.5257C108.386 24.752 112.539 28.9743 117.68 28.9743C122.821 28.9743 127 24.752 127 19.5257C127 14.2995 122.821 10.0772 117.68 10.0772ZM117.68 24.6233C114.92 24.6233 112.666 22.332 112.666 19.5257C112.666 16.7195 114.92 14.4282 117.68 14.4282C120.441 14.4282 122.695 16.7195 122.695 19.5257C122.695 22.332 120.441 24.6233 117.68 24.6233Z" fill="white"/>
</svg>
