<svg width="40" height="40" viewBox="0 0 40 40" fill="none" xmlns="http://www.w3.org/2000/svg">
<path d="M20 35L16 31H10.6667C9.93334 31 9.30534 30.7387 8.78267 30.216C8.26 29.6933 7.99911 29.0658 8 28.3333V9.66667C8 8.93334 8.26134 8.30534 8.784 7.78267C9.30667 7.26 9.93422 6.99911 10.6667 7H29.3333C30.0667 7 30.6947 7.26134 31.2173 7.784C31.74 8.30667 32.0009 8.93422 32 9.66667V28.3333C32 29.0667 31.7387 29.6947 31.216 30.2173C30.6933 30.74 30.0658 31.0009 29.3333 31H24L20 35ZM20 20.3333C21.2889 20.3333 22.3889 19.8778 23.3 18.9667C24.2111 18.0556 24.6667 16.9556 24.6667 15.6667C24.6667 14.3778 24.2111 13.2778 23.3 12.3667C22.3889 11.4556 21.2889 11 20 11C18.7111 11 17.6111 11.4556 16.7 12.3667C15.7889 13.2778 15.3333 14.3778 15.3333 15.6667C15.3333 16.9556 15.7889 18.0556 16.7 18.9667C17.6111 19.8778 18.7111 20.3333 20 20.3333ZM20 31.2667L22.9333 28.3333H29.3333V26.8C28.1333 25.6222 26.7387 24.6947 25.1493 24.0173C23.56 23.34 21.8436 23.0009 20 23C18.1556 23 16.4387 23.3391 14.8493 24.0173C13.26 24.6956 11.8658 25.6231 10.6667 26.8V28.3333H17.0667L20 31.2667Z" fill="black"/>
</svg>
