<svg width="21" height="14" viewBox="0 0 21 14" fill="none" xmlns="http://www.w3.org/2000/svg">
<path d="M14.8136 0H6.18682C5.16937 0 4.66117 -2.08616e-08 4.34512 0.2051C4.03012 0.4102 4.03012 0.7399 4.03012 1.4V1.925H16.9703V1.4C16.9703 0.7399 16.9703 0.4102 16.6553 0.2051C16.3382 -2.08616e-08 15.8311 0 14.8136 0ZM0.0842136 11.1671L3.79282 2.975H7.38697L5.40457 13.5849C5.40073 13.607 5.39898 13.6292 5.39932 13.6514C3.19852 13.3287 1.68022 12.845 0.770915 12.481C0.0863136 12.2073 -0.142587 11.669 0.0852638 11.1678L0.0842136 11.1671ZM6.92287 13.8355C7.98653 13.9384 9.17723 14 10.5002 14C11.8232 14 13.0129 13.9384 14.0776 13.8355C14.0555 13.7967 14.0403 13.7563 14.0324 13.7151L12.0269 2.975H8.97353L6.96802 13.7151C6.96014 13.7563 6.94498 13.7967 6.92287 13.8355ZM13.6145 2.975L15.5948 13.5849C15.599 13.6072 15.6011 13.6296 15.6011 13.6521C17.8019 13.3287 19.3192 12.8443 20.2285 12.4803C20.9141 12.2066 21.142 11.6683 20.9152 11.1671L17.2097 2.975H13.6156H13.6145Z" fill="#DCDCDC"/>
</svg>
