<svg width="62" height="105" viewBox="0 0 62 105" fill="none" xmlns="http://www.w3.org/2000/svg">
<path d="M14.4368 92.7115L56.5768 104.003C57.2417 104.181 58.1066 104.588 58.7984 104.598C58.8897 104.599 58.9994 104.652 59.0892 104.676C59.0378 104.662 58.3483 103.233 58.4299 103.382C57.8725 102.357 57.2951 101.339 56.716 100.327C56.1348 99.3146 55.5536 98.3022 54.9506 97.3024C54.8078 97.0655 54.4193 96.1463 54.1691 96.0793L12.8032 84.9953C13.6226 85.0163 14.442 85.0373 15.2614 85.0582C22.0234 85.2329 28.7859 85.4054 35.5478 85.5801C36.5331 85.6063 37.519 85.6303 38.5043 85.6565C38.9934 85.6698 39.5218 85.7421 39.9842 85.5473C41.424 84.9379 41.9715 82.5953 41.6195 81.2148C41.4537 80.5677 41.0637 79.9622 40.7499 79.3885C39.7903 77.6328 38.7959 75.8954 37.782 74.1713C37.2576 73.2803 36.7369 71.8454 35.6722 71.44C34.2063 70.881 32.5632 70.607 31.0493 70.2013L17.2129 66.4939C18.0947 66.5131 18.9743 66.5317 19.8561 66.5509C26.7512 66.6989 33.6485 66.8475 40.5436 66.9955C41.9446 67.0269 43.485 67.248 44.8816 67.0819C46.5285 66.8882 47.23 64.6723 47.1411 63.2422C47.0451 61.7017 45.8314 60.1503 45.1162 58.885C44.1244 57.1298 43.177 55.2942 42.0293 53.6335C41.821 53.333 41.6222 53.0742 41.2836 52.9096C39.9568 52.2677 38.2145 52.0733 36.8011 51.6946L22.8365 47.9528C23.6671 47.9745 24.4978 47.9961 25.3306 48.0184C32.0856 48.1935 38.8411 48.3665 45.5981 48.5422C46.5469 48.5678 47.4963 48.5912 48.4478 48.6153C48.9601 48.6279 49.4991 48.703 49.9752 48.4658C51.4017 47.7604 51.9262 45.384 51.4698 43.9825C51.2844 43.4086 50.941 42.8686 50.6568 42.3468C49.7021 40.59 48.7023 38.8559 47.689 37.1296C47.1652 36.2365 46.6439 34.8036 45.5791 34.3982C44.1133 33.8392 42.4702 33.5652 40.9563 33.1596L27.1242 29.4533C27.9856 29.4716 28.8469 29.49 29.7061 29.5078C36.642 29.6575 43.5785 29.8051 50.515 29.9526C51.9166 29.9818 53.5148 30.2438 54.9117 30.0339C56.5612 29.7877 57.2368 27.4033 57.0601 25.9843C57.0179 25.6544 56.9231 25.3496 56.794 25.0448C56.152 23.5404 55.21 22.1127 54.4014 20.6999C53.6163 19.328 52.8661 17.8939 51.9663 16.5906C51.7074 16.2141 51.4788 15.9728 51.0488 15.8068C49.6487 15.2676 48.0682 15.0081 46.6185 14.6196L32.5469 10.8492C35.461 10.9211 38.373 10.9925 41.2866 11.0666C45.7461 11.1785 50.2062 11.2883 54.6641 11.3975C55.9754 11.4302 57.2888 11.4635 58.6001 11.4962C59.7385 11.5241 60.5382 11.2765 61.1347 10.1363C61.6404 9.1727 61.8729 7.91182 61.533 6.86246C61.1275 5.6131 60.293 4.44275 59.6553 3.31591C58.6478 1.53348 57.7111 -0.555573 56.4172 -2.15844C55.9903 -2.68617 55.4782 -2.76797 54.871 -2.93068L5.15533 -16.2519C4.48822 -16.4307 3.62391 -16.8401 2.92945 -16.8484C2.83815 -16.8497 2.72846 -16.9022 2.63865 -16.9263C2.68997 -16.9125 3.3795 -15.4831 3.29792 -15.632C3.8553 -14.6075 4.43054 -13.5897 5.01178 -12.5773C5.59302 -11.5649 6.17426 -10.5524 6.77723 -9.55265C6.92002 -9.3158 7.30854 -8.3966 7.55871 -8.32957L49.0358 2.78418C48.2164 2.76321 47.3964 2.74441 46.577 2.72343C39.736 2.55297 32.8945 2.38464 26.0535 2.21418C25.0719 2.19131 24.0887 2.16574 23.105 2.14229C22.6158 2.12899 22.0875 2.05668 21.6272 2.25201C20.1847 2.86304 19.6421 5.20456 19.9919 6.58449C20.1556 7.23102 20.5499 7.83779 20.8615 8.41084C21.8184 10.1682 22.8155 11.9039 23.8294 13.628C24.3584 14.5272 24.8681 15.9523 25.9392 16.3594C27.395 16.9134 29.0311 17.1878 30.5343 17.5906L44.5032 21.3336C43.6419 21.3152 42.7805 21.2969 41.9213 21.2791C34.9848 21.1315 28.0489 20.9818 21.1124 20.8342C19.7248 20.8042 18.1951 20.5859 16.8109 20.7484C15.1639 20.9421 14.4619 23.1601 14.5514 24.5881C14.6492 26.1475 15.8451 27.6456 16.5768 28.9432C17.5687 30.6983 18.5154 32.5361 19.6632 34.1968C19.8746 34.5028 20.0681 34.7555 20.4089 34.9207C21.7298 35.5587 23.4566 35.7512 24.8636 36.1282L38.948 39.9021C38.1538 39.881 37.357 39.8615 36.5628 39.8403C29.7987 39.6651 23.0347 39.4898 16.27 39.3167C15.3073 39.292 14.3445 39.2672 13.3817 39.2425C12.8926 39.2292 12.3578 39.1551 11.8948 39.3521C10.4529 39.9609 9.90539 42.3035 10.2574 43.684C10.3926 44.2144 10.6904 44.6937 10.9438 45.1679C11.9435 47.0476 13.0148 48.891 14.0954 50.7253C14.6151 51.6081 15.1485 53.0558 16.2047 53.4588C17.6813 54.0207 19.3351 54.2976 20.8575 54.7055L34.5634 58.378C33.6838 58.3594 32.8021 58.3402 31.9224 58.3216C25.0273 58.1736 18.1301 58.0249 11.235 57.8769C9.82211 57.847 8.21051 57.5838 6.80233 57.793C5.15493 58.0397 4.47607 60.4278 4.65604 61.8431C4.69825 62.173 4.79305 62.4778 4.92008 62.7821C5.56201 64.2864 6.50405 65.7142 7.31262 67.127C8.0962 68.4961 8.84949 69.9357 9.7477 71.2362C10.0066 71.6127 10.2374 71.8547 10.6652 72.0201C12.0195 72.5423 13.5496 72.793 14.948 73.1677L29.041 76.9439C26.1274 76.8698 23.2123 76.793 20.2987 76.7189C15.8602 76.6056 11.4223 76.4902 6.98373 76.377C5.70198 76.3453 4.41868 76.3108 3.13693 76.2791C1.93522 76.2481 1.12834 76.6507 0.576408 77.8468C0.133042 78.8086 -0.0382021 79.9866 0.311494 80.9993C0.801894 82.4192 1.74542 83.7388 2.48201 85.0354C3.38405 86.621 4.23702 88.6206 5.45169 90.006C5.87464 90.4888 6.41952 90.5678 7.00753 90.7254L14.4314 92.7146L14.4368 92.7115Z" fill="white"/>
</svg>
