<svg width="55" height="23" viewBox="0 0 55 23" fill="none" xmlns="http://www.w3.org/2000/svg">
<path d="M43.5106 0C40.3959 0 37.5741 1.24617 35.5053 3.26055C33.4351 1.24617 30.6147 0 27.5 0C24.3853 0 21.5634 1.24617 19.4947 3.26055C17.4245 1.24617 14.6041 0 11.4894 0C5.14309 0 0 5.14786 0 11.5C0 17.8507 5.14309 23 11.4894 23C14.6041 23 17.4259 21.7538 19.4947 19.7395C21.5649 21.7538 24.3853 23 27.5 23C30.6147 23 33.4366 21.7538 35.5053 19.7395C37.5741 21.7538 40.3959 23 43.5106 23C49.8569 23 55 17.8507 55 11.5C55 5.14786 49.8569 0 43.5106 0ZM50.3864 18.3821C48.6234 20.1452 46.1983 21.2325 43.5106 21.234C40.8388 21.234 38.4267 20.1568 36.6667 18.411L36.6349 18.3821C36.4964 18.242 36.3608 18.0991 36.231 17.9518C35.84 17.507 35.1706 17.507 34.7797 17.9518C34.6498 18.0991 34.5156 18.2435 34.3757 18.3821L34.344 18.411C32.5839 20.1553 30.1718 21.2325 27.5 21.234C24.8268 21.234 22.4161 20.1568 20.656 18.411L20.6243 18.3821C20.4858 18.242 20.3502 18.0991 20.2203 17.9518C19.8294 17.507 19.1585 17.507 18.769 17.9518C18.6392 18.0991 18.505 18.2435 18.3651 18.3821L18.3333 18.411C16.5733 20.1553 14.1612 21.2325 11.4894 21.234C8.80167 21.234 6.37511 20.1452 4.61363 18.3821C2.85214 16.619 1.76582 14.1902 1.76582 11.5C1.76582 8.80839 2.85358 6.38103 4.61363 4.6179C6.37656 2.85478 8.80167 1.76745 11.4894 1.76601C14.1612 1.76601 16.5733 2.84323 18.3333 4.58758L18.3651 4.61646C18.5036 4.75508 18.6392 4.89949 18.769 5.04678C19.16 5.49008 19.8294 5.49008 20.2203 5.04678C20.3502 4.89949 20.4843 4.75508 20.6243 4.61646L20.656 4.58758C22.4161 2.84323 24.8282 1.76601 27.5 1.76601C30.1718 1.76601 32.5839 2.84323 34.344 4.58758L34.3757 4.61646C34.5142 4.75508 34.6498 4.89949 34.7797 5.04678C35.1706 5.49008 35.8415 5.49008 36.231 5.04678C36.3608 4.89949 36.495 4.75508 36.6349 4.61646L36.6667 4.58758C38.4267 2.84323 40.8388 1.76601 43.5106 1.76601C46.1983 1.76601 48.6249 2.85478 50.3864 4.6179C52.1478 6.38103 53.2342 8.80984 53.2342 11.5C53.2342 14.1902 52.1464 16.619 50.3864 18.3821Z" fill="white"/>
</svg>
