<svg width="193" height="214" viewBox="0 0 193 214" fill="none" xmlns="http://www.w3.org/2000/svg">
<path d="M31.9011 24.5575C31.95 24.6322 32.0478 24.7692 32.1945 24.9684C32.3658 25.1427 32.6103 25.5038 32.9283 26.0517C33.2707 26.5996 33.5764 27.1849 33.8455 27.8075C34.139 28.4301 34.3835 29.2146 34.5792 30.1609C34.7993 31.0824 34.9094 32.0287 34.9094 33C34.9094 34.9176 34.6403 36.6485 34.1023 38.1925C33.5887 39.7366 32.8794 40.9818 31.9744 41.9282C31.0939 42.8994 30.0789 43.6341 28.9294 44.1322C27.8043 44.6552 26.5937 44.9167 25.2974 44.9167H6.73374C6.51362 44.9167 6.33018 44.842 6.18344 44.6925C6.06115 44.568 6 44.3937 6 44.1695V8.30747C6 8.08333 6.06115 7.909 6.18344 7.78448C6.33018 7.63506 6.51362 7.56035 6.73374 7.56035H23.2429C24.5881 7.56035 25.8477 7.80939 27.0217 8.30747C28.1957 8.80556 29.2351 9.52778 30.1401 10.4741C31.045 11.3956 31.7543 12.6034 32.2679 14.0977C32.806 15.5671 33.075 17.2232 33.075 19.0661C33.075 20.2615 32.9772 21.3199 32.7815 22.2414C32.5859 23.1628 32.3902 23.7854 32.1945 24.1092L31.9011 24.5575ZM16.3091 16.6379V21.4195C16.3091 21.6686 16.4313 21.7931 16.6759 21.7931H19.9778C20.7115 21.7931 21.3474 21.5192 21.8855 20.9713C22.4236 20.4234 22.6926 19.7759 22.6926 19.0287C22.6926 18.2567 22.4236 17.6092 21.8855 17.0862C21.3474 16.5383 20.7115 16.2644 19.9778 16.2644H16.6759C16.4313 16.2644 16.3091 16.3889 16.3091 16.6379ZM21.6287 36.2126C22.3869 36.2126 23.0228 35.9511 23.5364 35.4282C24.0745 34.8803 24.3435 34.2328 24.3435 33.4856C24.3435 32.7136 24.0745 32.0536 23.5364 31.5057C23.0228 30.9579 22.3869 30.6839 21.6287 30.6839H16.6759C16.4313 30.6839 16.3091 30.8084 16.3091 31.0575V35.8391C16.3091 36.0881 16.4313 36.2126 16.6759 36.2126H21.6287Z" fill="white"/>
<path d="M61.9242 24.5575C61.9731 24.6322 62.071 24.7692 62.2177 24.9684C62.3889 25.1427 62.6335 25.5038 62.9515 26.0517C63.2939 26.5996 63.5996 27.1849 63.8686 27.8075C64.1621 28.4301 64.4067 29.2146 64.6024 30.1609C64.8225 31.0824 64.9326 32.0287 64.9326 33C64.9326 34.9176 64.6635 36.6485 64.1255 38.1925C63.6118 39.7366 62.9026 40.9818 61.9976 41.9282C61.1171 42.8994 60.1021 43.6341 58.9526 44.1322C57.8275 44.6552 56.6168 44.9167 55.3206 44.9167H36.7569C36.5368 44.9167 36.3534 44.842 36.2066 44.6925C36.0843 44.568 36.0232 44.3937 36.0232 44.1695V8.30747C36.0232 8.08333 36.0843 7.909 36.2066 7.78448C36.3534 7.63506 36.5368 7.56035 36.7569 7.56035H53.2661C54.6113 7.56035 55.8709 7.80939 57.0449 8.30747C58.2188 8.80556 59.2583 9.52778 60.1633 10.4741C61.0682 11.3956 61.7775 12.6034 62.2911 14.0977C62.8292 15.5671 63.0982 17.2232 63.0982 19.0661C63.0982 20.2615 63.0004 21.3199 62.8047 22.2414C62.6091 23.1628 62.4134 23.7854 62.2177 24.1092L61.9242 24.5575ZM46.3322 16.6379V21.4195C46.3322 21.6686 46.4545 21.7931 46.6991 21.7931H50.0009C50.7347 21.7931 51.3706 21.5192 51.9087 20.9713C52.4467 20.4234 52.7158 19.7759 52.7158 19.0287C52.7158 18.2567 52.4467 17.6092 51.9087 17.0862C51.3706 16.5383 50.7347 16.2644 50.0009 16.2644H46.6991C46.4545 16.2644 46.3322 16.3889 46.3322 16.6379ZM51.6519 36.2126C52.4101 36.2126 53.046 35.9511 53.5596 35.4282C54.0977 34.8803 54.3667 34.2328 54.3667 33.4856C54.3667 32.7136 54.0977 32.0536 53.5596 31.5057C53.046 30.9579 52.4101 30.6839 51.6519 30.6839H46.6991C46.4545 30.6839 46.3322 30.8084 46.3322 31.0575V35.8391C46.3322 36.0881 46.4545 36.2126 46.6991 36.2126H51.6519Z" fill="white"/>
<path d="M77.2523 8.56897C79.6491 7.52299 82.1561 7 84.7731 7C87.4146 7 89.9337 7.52299 92.3306 8.56897C94.7275 9.59004 96.7942 10.9722 98.5307 12.7155C100.267 14.4588 101.649 16.5383 102.676 18.954C103.704 21.3448 104.217 23.8602 104.217 26.5C104.217 29.1398 103.704 31.6676 102.676 34.0833C101.649 36.499 100.267 38.5785 98.5307 40.3218C96.7942 42.0651 94.7275 43.4473 92.3306 44.4684C89.9337 45.4895 87.4146 46 84.7731 46C82.1561 46 79.6491 45.4895 77.2523 44.4684C74.8554 43.4473 72.7887 42.0651 71.0521 40.3218C69.3156 38.5785 67.9337 36.499 66.9065 34.0833C65.8793 31.6676 65.3657 29.1398 65.3657 26.5C65.3657 23.8602 65.8793 21.3448 66.9065 18.954C67.9337 16.5383 69.3156 14.4588 71.0521 12.7155C72.7887 10.9722 74.8554 9.59004 77.2523 8.56897ZM78.4996 32.8132C80.2361 34.5565 82.3273 35.4282 84.7731 35.4282C87.2434 35.4282 89.3467 34.5565 91.0833 32.8132C92.8198 31.0699 93.688 28.9655 93.688 26.5C93.688 24.0345 92.8198 21.9301 91.0833 20.1868C89.3467 18.4435 87.2434 17.5718 84.7731 17.5718C82.3273 17.5718 80.2361 18.4435 78.4996 20.1868C76.7631 21.9301 75.8948 24.0345 75.8948 26.5C75.8948 28.9655 76.7631 31.0699 78.4996 32.8132Z" fill="white"/>
<path d="M131.508 7.74713C131.63 7.62261 131.789 7.56035 131.984 7.56035H141.303C141.499 7.56035 141.658 7.63506 141.78 7.78448C141.927 7.909 142 8.08333 142 8.30747V44.1695C142 44.3937 141.927 44.568 141.78 44.6925C141.658 44.842 141.499 44.9167 141.303 44.9167H132.425C132.229 44.9167 132.058 44.842 131.911 44.6925C131.789 44.568 131.728 44.3937 131.728 44.1695V26.0517L128.976 37.7443C128.903 38.1178 128.67 38.3046 128.279 38.3046H119.034C118.643 38.3046 118.41 38.1178 118.337 37.7443L115.622 26.0517V44.1695C115.622 44.3937 115.549 44.568 115.402 44.6925C115.255 44.842 115.084 44.9167 114.888 44.9167H106.047C105.827 44.9167 105.643 44.842 105.496 44.6925C105.374 44.568 105.313 44.3937 105.313 44.1695V8.30747C105.313 8.08333 105.374 7.909 105.496 7.78448C105.643 7.63506 105.827 7.56035 106.047 7.56035H115.329C115.524 7.56035 115.683 7.62261 115.805 7.74713C116.808 8.7682 117.958 10.6111 119.254 13.2759C120.575 15.9157 121.639 18.319 122.446 20.4856L123.656 23.6983C123.779 23.3745 123.95 22.9262 124.17 22.3534C124.39 21.7557 124.818 20.6849 125.454 19.1408C126.09 17.5718 126.702 16.1274 127.289 14.8075C127.9 13.4875 128.597 12.1427 129.38 10.773C130.162 9.40326 130.872 8.39464 131.508 7.74713Z" fill="white"/>
<path d="M22.7144 78.5904C23.6024 78.5904 24.3902 77.7915 25.0777 76.1936C26.2521 73.5116 26.868 68.9463 26.9253 62.498C26.9253 62.2697 27.0112 62.07 27.1831 61.8988C27.3549 61.7276 27.5555 61.642 27.7846 61.642H38.5695C38.7987 61.642 38.9992 61.7276 39.171 61.8988C39.3429 62.07 39.4289 62.2697 39.4289 62.498C39.3716 66.7493 39.0278 70.7011 38.3976 74.3533C37.7674 78.0055 36.9367 81.1583 35.9055 83.8119C34.9029 86.4654 33.6855 88.8907 32.2533 91.0877C30.821 93.3132 29.3744 95.1393 27.9135 96.566C26.4526 98.0211 24.8628 99.3051 23.1441 100.418C21.4254 101.559 19.8642 102.429 18.4606 103.029C17.057 103.628 15.5961 104.113 14.0779 104.484C12.5884 104.883 11.4139 105.14 10.5546 105.254C9.69522 105.368 8.89316 105.454 8.14838 105.511C7.91922 105.511 7.71871 105.425 7.54684 105.254C7.37497 105.111 7.28903 104.912 7.28903 104.655V95.068C7.28903 94.64 7.48955 94.3832 7.89058 94.2976C8.77858 94.0694 9.69522 93.7983 10.6405 93.4844C11.5858 93.1706 12.7173 92.7426 14.035 92.2005C15.3813 91.6583 16.4698 91.0164 17.3005 90.2745C18.1599 89.5327 18.5895 88.7623 18.5895 87.9634C18.5036 87.9634 18.3604 87.9634 18.1599 87.9634C17.988 87.9919 17.6156 87.9634 17.0427 87.8778C16.4698 87.7922 15.9112 87.6352 15.367 87.407C14.8227 87.2073 14.1782 86.8363 13.4334 86.2942C12.6886 85.7521 11.9868 85.0958 11.328 84.3255C10.6978 83.5551 10.0533 82.5136 9.39445 81.2011C8.73561 79.8886 8.16271 78.3907 7.67574 76.7072C7.21742 75.0238 6.83071 72.9695 6.51561 70.5442C6.20052 68.0904 6.02865 65.4083 6 62.498C6 62.2697 6.08594 62.07 6.25781 61.8988C6.42968 61.7276 6.63019 61.642 6.85935 61.642H17.6442C17.8734 61.642 18.0596 61.7276 18.2028 61.8988C18.3747 62.07 18.4606 62.2697 18.4606 62.498C18.5466 71.3146 19.6208 76.5503 21.6832 78.2052C22.0269 78.462 22.3707 78.5904 22.7144 78.5904Z" fill="white"/>
<path d="M47.1328 63.0544C49.5104 61.6848 52.0884 61 54.867 61C57.6456 61 60.2093 61.6848 62.5582 63.0544C64.9358 64.4239 66.812 66.2928 68.187 68.661C69.562 71.0007 70.2494 73.5686 70.2494 76.3648C70.2494 79.1325 69.562 81.6862 68.187 84.0259C66.812 86.3655 64.9358 88.2202 62.5582 89.5897C60.2093 90.9593 57.6456 91.6441 54.867 91.6441C52.0884 91.6441 49.5104 90.9593 47.1328 89.5897C44.7839 88.2202 42.922 86.3655 41.547 84.0259C40.1721 81.6862 39.4846 79.1325 39.4846 76.3648C39.4846 73.5686 40.1721 71.0007 41.547 68.661C42.922 66.2928 44.7839 64.4239 47.1328 63.0544ZM51.8163 79.4036C52.647 80.231 53.6639 80.6447 54.867 80.6447C56.0701 80.6447 57.087 80.231 57.9177 79.4036C58.7484 78.5476 59.1638 77.5347 59.1638 76.3648C59.1638 75.1665 58.7484 74.1536 57.9177 73.3261C57.087 72.4701 56.0701 72.0421 54.867 72.0421C53.6639 72.0421 52.647 72.4701 51.8163 73.3261C50.9856 74.1536 50.5702 75.1665 50.5702 76.3648C50.5702 77.5347 50.9856 78.5476 51.8163 79.4036Z" fill="white"/>
<path d="M72.3589 61.6848H82.1985C82.4276 61.6848 82.6138 61.7704 82.7571 61.9416C82.9289 62.1128 83.0149 62.2982 83.0149 62.498V79.4892C83.0149 79.8316 83.1008 80.1597 83.2727 80.4735C83.6451 81.1869 84.218 81.5435 84.9914 81.5435C85.507 81.5435 85.951 81.3438 86.3234 80.9443C86.7244 80.5449 86.9249 80.0598 86.9249 79.4892V62.5408C86.9249 62.3125 86.9965 62.1128 87.1398 61.9416C87.3116 61.7704 87.5121 61.6848 87.7413 61.6848L98.1825 61.642C98.4116 61.642 98.6121 61.7276 98.784 61.8988C98.9559 62.07 99.0418 62.2697 99.0418 62.498V90.1461C99.0418 90.3744 98.9559 90.5741 98.784 90.7453C98.6121 90.9165 98.4116 91.0021 98.1825 91.0021L90.5772 91.0449C89.0303 91.4444 87.3832 91.6441 85.6359 91.6441C83.3729 91.6441 81.3391 91.316 79.5345 90.6597C77.7298 90.0034 76.2546 89.1047 75.1088 87.9634C73.963 86.8221 73.075 85.481 72.4448 83.9403C71.8433 82.428 71.5425 80.8017 71.5425 79.0612V62.498C71.5425 62.2697 71.6141 62.0842 71.7573 61.9416C71.9292 61.7704 72.1297 61.6848 72.3589 61.6848Z" fill="white"/>
<path d="M113.133 62.7976C115.367 62.0272 117.702 61.642 120.137 61.642C120.509 61.642 120.896 61.6563 121.297 61.6848C121.526 61.7133 121.712 61.8132 121.855 61.9844C121.999 62.127 122.07 62.3125 122.07 62.5408V71.1434C122.07 71.3716 121.984 71.5714 121.812 71.7425C121.64 71.9137 121.426 71.9851 121.168 71.9565C120.795 71.928 120.452 71.9137 120.137 71.9137C118.618 71.9137 117.229 72.2133 115.969 72.8125C114.708 73.4117 113.763 74.1964 113.133 75.1665V89.5469C113.133 89.8037 113.047 90.0035 112.875 90.1461C112.703 90.3173 112.503 90.4029 112.274 90.4029H101.145C100.887 90.4029 100.672 90.3173 100.5 90.1461C100.357 90.0035 100.286 89.8037 100.286 89.5469V62.498C100.286 62.2697 100.357 62.07 100.5 61.8988C100.672 61.7276 100.887 61.642 101.145 61.642H112.274C112.503 61.642 112.689 61.7276 112.832 61.8988C113.004 62.0414 113.104 62.2269 113.133 62.4552V62.7976Z" fill="white"/>
<path d="M13.6482 119.228C16.0258 117.858 18.6039 117.174 21.3824 117.174C24.161 117.174 26.7247 117.858 29.0736 119.228C31.4512 120.598 33.3274 122.466 34.7024 124.835C36.0774 127.174 36.7649 129.742 36.7649 132.539C36.7649 135.306 36.0774 137.86 34.7024 140.2C33.3274 142.539 31.4512 144.394 29.0736 145.763C26.7247 147.133 24.161 147.818 21.3824 147.818C18.6039 147.818 16.0258 147.133 13.6482 145.763C11.2993 144.394 9.43741 142.539 8.06245 140.2C6.68748 137.86 6 135.306 6 132.539C6 129.742 6.68748 127.174 8.06245 124.835C9.43741 122.466 11.2993 120.598 13.6482 119.228ZM18.3317 135.577C19.1624 136.405 20.1793 136.818 21.3824 136.818C22.5855 136.818 23.6024 136.405 24.4331 135.577C25.2638 134.721 25.6792 133.708 25.6792 132.539C25.6792 131.34 25.2638 130.327 24.4331 129.5C23.6024 128.644 22.5855 128.216 21.3824 128.216C20.1793 128.216 19.1624 128.644 18.3317 129.5C17.501 130.327 17.0857 131.34 17.0857 132.539C17.0857 133.708 17.501 134.721 18.3317 135.577Z" fill="white"/>
<path d="M49.2725 146.577H38.9173C38.6595 146.577 38.4446 146.491 38.2728 146.32C38.1295 146.177 38.0579 145.977 38.0579 145.721V103.992C38.0579 103.763 38.1295 103.564 38.2728 103.392C38.4446 103.221 38.6595 103.136 38.9173 103.136H49.2725C49.5016 103.136 49.7022 103.221 49.874 103.392C50.0459 103.535 50.1318 103.735 50.1318 103.992V145.721C50.1318 145.977 50.0459 146.177 49.874 146.32C49.7022 146.491 49.5016 146.577 49.2725 146.577Z" fill="white"/>
<path d="M51.4883 130.827C51.8894 127.231 53.4076 124.15 56.0429 121.582C58.7069 118.985 61.8579 117.53 65.4958 117.216C67.501 117.074 69.4632 117.302 71.3824 117.901V104.591C71.3824 104.363 71.4683 104.177 71.6402 104.034C71.8121 103.863 72.0126 103.778 72.2417 103.778H82.5969C82.8261 103.778 83.0266 103.863 83.1985 104.034C83.3704 104.177 83.4563 104.363 83.4563 104.591V146.363C83.4563 146.591 83.3704 146.776 83.1985 146.919C83.0266 147.09 82.8261 147.176 82.5969 147.176H71.3824V147.133C69.8928 147.589 68.3603 147.818 66.7848 147.818C64.5505 147.818 62.4308 147.361 60.4256 146.448C58.4491 145.535 56.759 144.308 55.3554 142.767C53.9805 141.255 52.9349 139.458 52.2188 137.375C51.5027 135.263 51.2592 133.081 51.4883 130.827ZM63.7341 129.5C62.9034 130.327 62.4881 131.34 62.4881 132.539C62.4881 133.708 62.9034 134.721 63.7341 135.577C64.5935 136.405 65.6104 136.818 66.7848 136.818C67.9879 136.818 69.0048 136.405 69.8355 135.577C70.6662 134.721 71.0816 133.708 71.0816 132.539C71.0816 131.34 70.6662 130.327 69.8355 129.5C69.0048 128.644 67.9879 128.216 66.7848 128.216C65.6104 128.216 64.5935 128.644 63.7341 129.5Z" fill="white"/>
<path d="M27.1831 192.564L31.6517 199.155C31.9095 199.555 31.8665 199.911 31.5228 200.225C28.601 202.736 25.2352 203.991 21.4254 203.991C19.1911 203.991 17.0713 203.535 15.0662 202.622C13.061 201.709 11.3566 200.482 9.95303 198.941C8.57806 197.4 7.53251 195.589 6.81639 193.506C6.10026 191.394 5.8711 189.197 6.1289 186.915C6.52993 183.405 8.00516 180.381 10.5546 177.841C13.1326 175.302 16.1833 173.832 19.7067 173.433C21.9124 173.205 24.0321 173.419 26.0659 174.075C28.0997 174.731 29.9187 175.744 31.5228 177.114C31.8665 177.428 31.9095 177.798 31.6517 178.226L27.1831 184.775C27.0398 184.974 26.8393 185.089 26.5815 185.117C26.3524 185.146 26.1375 185.074 25.937 184.903C24.8771 184.019 23.6454 183.576 22.2418 183.576C20.8095 183.576 19.5921 184.076 18.5895 185.074C17.6156 186.073 17.1286 187.271 17.1286 188.669C17.1286 190.067 17.6156 191.266 18.5895 192.265C19.5921 193.263 20.8095 193.762 22.2418 193.762C23.6454 193.762 24.8771 193.32 25.937 192.436C26.1375 192.265 26.3524 192.193 26.5815 192.222C26.8393 192.25 27.0398 192.364 27.1831 192.564Z" fill="white"/>
<path d="M44.2372 202.75H33.882C33.6242 202.75 33.4094 202.665 33.2375 202.493C33.0943 202.351 33.0226 202.151 33.0226 201.894V160.165C33.0226 159.937 33.0943 159.737 33.2375 159.566C33.4094 159.395 33.6242 159.309 33.882 159.309H44.2372C44.4664 159.309 44.6669 159.395 44.8388 159.566C45.0106 159.709 45.0966 159.908 45.0966 160.165V201.894C45.0966 202.151 45.0106 202.351 44.8388 202.493C44.6669 202.665 44.4664 202.75 44.2372 202.75Z" fill="white"/>
<path d="M53.9724 175.402C56.3499 174.032 58.928 173.347 61.7066 173.347C64.4852 173.347 67.0489 174.032 69.3978 175.402C71.7754 176.771 73.6516 178.64 75.0266 181.008C76.4015 183.348 77.089 185.916 77.089 188.712C77.089 191.48 76.4015 194.034 75.0266 196.373C73.6516 198.713 71.7754 200.568 69.3978 201.937C67.0489 203.307 64.4852 203.991 61.7066 203.991C58.928 203.991 56.3499 203.307 53.9724 201.937C51.6235 200.568 49.7616 198.713 48.3866 196.373C47.0116 194.034 46.3242 191.48 46.3242 188.712C46.3242 185.916 47.0116 183.348 48.3866 181.008C49.7616 178.64 51.6235 176.771 53.9724 175.402ZM58.6559 191.751C59.4866 192.578 60.5035 192.992 61.7066 192.992C62.9097 192.992 63.9266 192.578 64.7573 191.751C65.588 190.895 66.0034 189.882 66.0034 188.712C66.0034 187.514 65.588 186.501 64.7573 185.673C63.9266 184.817 62.9097 184.389 61.7066 184.389C60.5035 184.389 59.4866 184.817 58.6559 185.673C57.8252 186.501 57.4098 187.514 57.4098 188.712C57.4098 189.882 57.8252 190.895 58.6559 191.751Z" fill="white"/>
<path d="M101.478 174.032C101.707 174.032 101.893 174.118 102.036 174.289C102.208 174.46 102.294 174.66 102.294 174.888V183.405C102.294 183.633 102.208 183.833 102.036 184.004C101.893 184.176 101.707 184.261 101.478 184.261H95.8921V201.894C95.8921 202.151 95.8061 202.351 95.6343 202.493C95.4911 202.665 95.3049 202.75 95.0757 202.75H84.6775C84.4484 202.75 84.2478 202.665 84.076 202.493C83.9327 202.351 83.8611 202.151 83.8611 201.894V184.261H78.2753C78.0462 184.261 77.8457 184.176 77.6738 184.004C77.5306 183.833 77.4589 183.633 77.4589 183.405V174.888C77.4589 174.66 77.5306 174.46 77.6738 174.289C77.8457 174.118 78.0462 174.032 78.2753 174.032H83.8611V166.585C83.8611 166.357 83.9327 166.171 84.076 166.029C84.2478 165.858 84.4484 165.772 84.6775 165.772H95.0757C95.3049 165.772 95.4911 165.858 95.6343 166.029C95.8061 166.171 95.8921 166.357 95.8921 166.585V174.032H101.478Z" fill="white"/>
<path d="M119.971 184.903C119.971 184.332 119.756 183.862 119.327 183.491C118.926 183.091 118.424 182.892 117.823 182.892C117.221 182.892 116.706 183.091 116.276 183.491C115.875 183.862 115.674 184.332 115.674 184.903V201.894C115.674 202.151 115.588 202.351 115.417 202.493C115.245 202.665 115.044 202.75 114.815 202.75H104.46C104.202 202.75 103.987 202.665 103.815 202.493C103.672 202.351 103.6 202.151 103.6 201.894V160.165C103.6 159.937 103.672 159.737 103.815 159.566C103.987 159.395 104.202 159.309 104.46 159.309H114.815C115.044 159.309 115.245 159.395 115.417 159.566C115.588 159.709 115.674 159.908 115.674 160.165V172.877C116.419 172.762 117.092 172.705 117.694 172.705C121.418 172.705 124.597 173.947 127.233 176.429C129.868 178.883 131.186 181.864 131.186 185.374V201.894C131.186 202.151 131.1 202.351 130.928 202.493C130.756 202.665 130.555 202.75 130.326 202.75H120.83C120.601 202.75 120.401 202.665 120.229 202.493C120.057 202.351 119.971 202.151 119.971 201.894V184.903Z" fill="white"/>
<path d="M161.559 181.779C162.591 183.947 163.149 186.301 163.235 188.841C163.264 189.297 163.049 189.568 162.591 189.654L146.306 193.249C147.022 193.62 147.795 193.805 148.626 193.805C150.03 193.805 151.262 193.363 152.321 192.479C152.522 192.307 152.737 192.236 152.966 192.265C153.224 192.293 153.41 192.407 153.525 192.607L157.993 199.155C158.28 199.583 158.237 199.954 157.864 200.268C154.971 202.75 151.62 203.991 147.81 203.991C145.031 203.991 142.453 203.307 140.076 201.937C137.727 200.568 135.865 198.699 134.49 196.33C133.144 193.991 132.47 191.423 132.47 188.627C132.47 188.598 132.47 188.584 132.47 188.584C132.47 188.184 132.499 187.771 132.556 187.343C132.871 183.405 134.49 180.095 137.412 177.413C140.362 174.703 143.828 173.347 147.81 173.347C150.789 173.347 153.496 174.103 155.931 175.616C158.394 177.099 160.27 179.154 161.559 181.779ZM149.743 182.464C148.626 182.464 147.581 182.72 146.607 183.234C145.633 183.719 144.931 184.361 144.501 185.16C144.444 185.245 144.444 185.331 144.501 185.417C144.559 185.474 144.63 185.488 144.716 185.459L152.665 183.748C152.751 183.719 152.794 183.662 152.794 183.576C152.823 183.491 152.808 183.419 152.751 183.362C151.892 182.763 150.889 182.464 149.743 182.464Z" fill="white"/>
<path d="M175.848 172.791C177.968 172.791 180.402 172.962 183.152 173.305C183.382 173.333 183.568 173.447 183.711 173.647C183.854 173.818 183.911 174.018 183.883 174.246L182.809 182.292C182.78 182.549 182.651 182.749 182.422 182.892C182.193 183.034 181.949 183.063 181.691 182.977C179.858 182.349 178.354 182.036 177.18 182.036C176.578 182.036 176.077 182.178 175.676 182.464C175.275 182.72 175.132 183.063 175.246 183.491C175.304 183.719 175.59 183.919 176.106 184.09C176.621 184.261 177.237 184.418 177.953 184.561C178.669 184.675 179.443 184.946 180.274 185.374C181.104 185.773 181.863 186.287 182.551 186.915C183.267 187.514 183.854 188.455 184.313 189.739C184.771 190.995 185 192.493 185 194.233C185 195.66 184.785 196.93 184.355 198.042C183.926 199.184 183.367 200.082 182.68 200.739C181.992 201.423 181.233 201.994 180.402 202.451C179.572 202.936 178.741 203.264 177.91 203.435C177.08 203.635 176.321 203.777 175.633 203.863C174.946 203.977 174.387 204.02 173.957 203.991H173.313C171.078 203.991 168.128 203.72 164.461 203.178C164.232 203.121 164.046 202.993 163.903 202.793C163.76 202.622 163.702 202.422 163.731 202.194L165.063 194.233C165.12 193.976 165.249 193.777 165.45 193.634C165.679 193.491 165.908 193.463 166.137 193.548C168.343 194.233 170.276 194.576 171.938 194.576C172.539 194.576 173.041 194.462 173.442 194.233C173.843 194.034 174 193.72 173.914 193.292C173.886 193.035 173.614 192.821 173.098 192.65C172.582 192.479 171.966 192.35 171.25 192.265C170.534 192.15 169.761 191.922 168.93 191.58C168.099 191.237 167.326 190.809 166.61 190.296C165.922 189.754 165.335 188.94 164.848 187.856C164.39 186.743 164.161 185.431 164.161 183.919C164.161 182.578 164.29 181.351 164.547 180.238C164.834 179.125 165.192 178.198 165.622 177.456C166.08 176.714 166.596 176.058 167.168 175.487C167.77 174.888 168.386 174.432 169.016 174.118C169.675 173.775 170.319 173.504 170.95 173.305C171.608 173.076 172.224 172.934 172.797 172.877C173.399 172.819 173.914 172.777 174.344 172.748C174.802 172.72 175.16 172.72 175.418 172.748L175.848 172.791Z" fill="white"/>
</svg>
